<?xml version="1.0" encoding="UTF-8"?>
<svg version="1.1" viewBox="0 0 1600 1264" width="1280" height="1280" xmlns="http://www.w3.org/2000/svg">
<path transform="translate(0)" d="m0 0h1600v1264h-1600v-1264z" fill="#FBFDFD"/>
<path transform="translate(793 175)" d="m0 0c1.11-0 2.22-0 3.36-0.01 16.4 0 32.5 0.63 48.8 2.88 2.64 0.36 5.28 0.65 7.93 0.92 0.77 0.08 1.54 0.16 2.34 0.24 0.71 0.07 1.42 0.15 2.15 0.22 5.39 0.56 10.4 1.77 15.6 3.24 3.47 0.93 6.97 1.64 10.5 2.34 15.1 3.03 29.7 7.64 44.3 12.4 1.35 0.44 1.35 0.44 2.72 0.89 5.27 1.74 10.3 3.77 15.4 6.05 4.02 1.8 8.06 3.52 12.2 5.12 3.49 1.38 6.54 3 9.75 4.94 1.17 0.41 2.35 0.82 3.56 1.25 4.94 1.75 9.25 4.49 13.7 7.23 2.34 1.3 4.13 2.06 6.74 2.52v2c0.68 0.25 1.37 0.51 2.08 0.77 3.34 1.41 6.46 3.11 9.6 4.92 0.62 0.35 1.24 0.7 1.87 1.07 7.64 4.44 14.7 9.63 21.7 15 1.83 1.38 1.83 1.38 4.3 2.77 2.86 1.76 5.21 3.85 7.69 6.1 1.68 1.46 1.68 1.46 3.65 2.27 2.89 1.56 4.81 3.78 7.1 6.13 1.81 1.52 3.65 3.02 5.5 4.5 3.74 2.98 7.12 6.12 10.5 9.5l2 1v2h2c0.53 0.68 1.07 1.36 1.62 2.06 2.56 3.17 5.36 5.62 8.44 8.26 6.89 5.97 13.5 13 18.7 20.5 2.19 3.1 4.54 5.55 7.25 8.19 4 4.65 4 4.65 4 7 0.99 0.33 1.98 0.66 3 1 3 4.33 3 4.33 3 7 0.99 0.33 1.98 0.66 3 1l1 3c0.82 0.78 1.65 1.57 2.5 2.37 2.59 2.73 3.18 3.97 3.5 7.63h2c1.2 1.85 2.31 3.76 3.37 5.69 1.76 3.16 3.44 6.07 5.7 8.9 1.89 2.36 3.1 4.55 4.37 7.28 1.5 3.13 3.02 5.93 5.12 8.69 2.43 3.23 3.99 6.61 5.54 10.3 0.87 2.14 0.87 2.14 2.01 4.19 0.89 1.92 0.89 1.92 0.89 4.92h2c0.28 0.68 0.56 1.36 0.85 2.06 2.5 6.06 5.07 12.1 7.71 18.1 9.88 22.5 9.88 22.5 9.44 29.9h2c2.99 8.83 5.74 17.5 7.49 26.7 0.49 2.48 0.49 2.48 1.57 5.34 1.33 4.27 1.6 8.56 1.94 13h2c0.25 1.82 0.25 1.82 0.51 3.68 1.49 10.5 3.02 21 4.61 31.6 0.17 1.15 0.34 2.3 0.52 3.48 0.24 1.6 0.24 1.6 0.49 3.22 0.14 0.95 0.29 1.9 0.43 2.88 0.22 2.14 0.22 2.14 1.44 3.17 1.77 0 3.54-0.06 5.31-0.16 1.61-0.08 1.61-0.08 3.26-0.16 1.13-0.06 2.26-0.12 3.43-0.18 2.23-0.12 4.46-0.23 6.68-0.34 1-0.06 1.99-0.11 3.02-0.17 2.3 0.01 2.3 0.01 3.3 1.01 0.12 2.39 0.19 4.75 0.2 7.14 0.01 0.74 0.01 1.47 0.02 2.24 0.02 2.43 0.02 4.87 0.03 7.31v2.51c0 18.6-0.93 37.3-4.79 55.5-0.73 3.62-1.16 7.26-1.59 10.9-0.08 0.71-0.17 1.43-0.26 2.17-0.21 1.73-0.41 3.47-0.61 5.2h-2c-0.1 0.91-0.2 1.82-0.3 2.75-1.37 11.5-3.99 22.2-7.7 33.2-2.8 8.59-5.56 17.1-7 26h-2c-0.15 0.63-0.3 1.26-0.45 1.91-1.75 7.01-4.3 13.4-7.25 20-1.02 2.4-1.79 4.54-2.3 7.07h-2c-0.48 1.42-0.96 2.83-1.44 4.25-0.27 0.79-0.53 1.58-0.81 2.39-0.67 2.11-1.24 4.21-1.75 6.36h-2c-0.16 0.53-0.32 1.07-0.48 1.62-1.9 6.07-4.24 11.9-7.52 17.4l-2 1c-0.69 1.66-1.36 3.33-2 5-3.38 6.18-7.03 12.2-11 18-0.73 1.19-1.46 2.37-2.19 3.56-4.83 7.77-10.1 15.3-15.8 22.4l-2 3h-2c-0.22 0.68-0.43 1.37-0.65 2.07-1.77 3.83-4.25 6.61-7.04 9.74-0.54 0.62-1.08 1.24-1.63 1.87-1.56 1.78-3.12 3.55-4.68 5.32-1.36 1.54-2.71 3.08-4.06 4.63-0.51 0.56-1.02 1.13-1.54 1.72-1.49 1.7-1.49 1.7-2.96 3.86-0.48 0.59-0.95 1.18-1.44 1.79h-2c-0.27 0.6-0.54 1.2-0.82 1.81-1.18 2.19-2.28 3.6-4.18 5.19h-2c-0.36 0.87-0.36 0.87-0.73 1.75-1.52 2.69-3.29 4.25-5.65 6.25-2.36 2.02-4.63 4.01-6.79 6.25-1.83 1.75-1.83 1.75-3.83 1.75-0.25 0.64-0.5 1.28-0.75 1.94-1.58 2.6-2.42 2.35-5.25 3.06-1.29 1.98-1.29 1.98-2 4h-2l-1 3c-3.45 3-3.45 3-6 3v2c-1.46 1.29-1.46 1.29-3.38 2.63-0.94 0.66-0.94 0.66-1.9 1.35-1.72 1.02-1.72 1.02-3.72 1.02v2h-2v2c-2.02 1.45-2.02 1.45-4.82 3.13-4.01 2.47-7.85 5.04-11.6 7.87-14.9 11-14.9 11-19.6 11v2c-5.89 4.32-16.6 12-24 12v2c-2.54 1.32-5.08 2.63-7.63 3.94-0.71 0.37-1.42 0.74-2.16 1.13-4.08 2.08-7.58 3.47-12.2 3.93v2c-0.89 0.27-0.89 0.27-1.8 0.55-1.18 0.38-1.18 0.38-2.39 0.76-1.17 0.37-1.17 0.37-2.36 0.74-2.5 0.89-2.5 0.89-4.78 2.37-3.27 1.93-6.68 3.22-10.2 4.52-0.71 0.26-1.41 0.52-2.13 0.78-5.25 1.93-10.5 3.72-15.9 5.42-2.4 0.77-2.4 0.77-4.28 1.84-2.56 1.2-5.16 1.81-7.9 2.46-3.29 0.81-6.53 1.77-9.78 2.72-8.78 2.55-17.5 4.99-26.5 6.84-0.82 0.18-1.64 0.36-2.48 0.54-14.2 3.08-28.3 5.18-42.6 6.71-0.77 0.08-1.54 0.17-2.34 0.25-25.9 2.75-51.7 3.65-77.7 1.06-1.02-0.1-1.02-0.1-2.05-0.2-11.1-1.13-11.1-1.13-14.8-2.36-1.66-0.22-3.33-0.41-4.99-0.58-13.4-1.41-26.3-3.53-39.4-6.78-2.57-0.62-5.14-1.2-7.72-1.76-13.6-2.98-26.6-7.24-39.7-11.8-4.25-1.46-8.52-2.82-12.8-4.18-2.36-0.91-2.36-0.91-4.36-2.91-2.21-0.87-4.44-1.67-6.69-2.44-14-4.85-14-4.85-15.3-7.56h-3v-2c-0.8-0.06-1.59-0.12-2.41-0.18-4.89-1.12-8.76-3.41-13.1-5.88-1.32-0.74-1.32-0.74-2.66-1.5-2.62-1.47-5.23-2.95-7.84-4.44-1.44-0.81-2.88-1.63-4.32-2.44-8.91-5.04-8.91-5.04-12.7-7.56-1.37-0.74-2.75-1.46-4.13-2.19-4.21-2.32-7.87-5.04-11.6-8.04-4.16-3.25-8.62-6.07-13.1-8.93-3.94-2.57-3.94-2.57-5.52-4.2-2.22-2.16-4.66-3.85-7.18-5.64-3.08-2.18-5.9-4.28-8.5-7-1.26-1.14-2.54-2.26-3.82-3.37-0.7-0.62-1.4-1.23-2.13-1.86-1.73-1.49-3.47-2.95-5.24-4.4-2.77-2.33-5.28-4.78-7.81-7.37l-12-12c-0.61-0.6-1.22-1.19-1.84-1.8-4.62-4.56-8.94-9.28-13.2-14.2-1.13-1.27-2.25-2.54-3.38-3.81-6.65-7.62-12.9-15.4-18.8-23.7-1.24-1.71-2.53-3.38-3.87-5.02-1.89-2.41-3.4-4.85-4.95-7.49-1.16-1.68-2.32-3.34-3.5-5-2.33-3.26-4.47-6.55-6.5-10-0.49-0.79-0.97-1.58-1.47-2.39-0.48-0.8-0.97-1.6-1.47-2.42-0.48-0.79-0.97-1.58-1.46-2.4-1.22-2.12-2.34-4.23-3.42-6.43-2.57-5.2-5.38-10.3-8.18-15.4-9.3-16.9-9.3-16.9-11.9-23.8-1.48-3.8-3.03-7.56-4.62-11.3-1.81-4.31-3.41-8.62-4.83-13.1-0.48-1.48-1.03-2.94-1.61-4.38-2.75-6.86-4.67-13.9-6.52-21.1-0.85-3.23-1.76-6.36-3.04-9.44-2.02-4.95-2.75-10.3-3.7-15.5-0.59-3.33-0.59-3.33-1.7-5.68-1.37-3.69-1.91-7.43-2.48-11.3-0.13-0.82-0.25-1.65-0.38-2.5-0.4-2.66-0.79-5.33-1.18-8-0.14-0.91-0.27-1.83-0.41-2.77-0.89-6.07-1.75-12.2-2.59-18.2-0.16-1.1-0.31-2.2-0.47-3.34-2.47-18.1-1.72-36.5-1.53-54.7 2.51-1.26 4.41-1.21 7.22-1.32 1.04-0.04 2.07-0.08 3.13-0.12 1.08-0.04 2.16-0.08 3.27-0.12 1.09-0.05 2.18-0.09 3.3-0.13 2.69-0.11 5.38-0.21 8.08-0.31 0.06-0.66 0.12-1.31 0.18-1.99 1.3-13.9 3.09-27.6 5.76-41.3 0.24-1.25 0.48-2.49 0.72-3.78 1.76-8.77 3.97-17.4 6.34-26 0.39-1.49 0.78-2.98 1.16-4.46 2.93-11.3 2.93-11.3 5.06-16.6 0.99-2.5 1.88-5.04 2.78-7.59 1.43-3.95 3.08-7.63 5-11.4 0.68-2 1.34-4 2-6 4.28-11.6 9.63-22.8 15.7-33.6 1.53-2.78 2.93-5.61 4.28-8.48 1.16-2.14 2.52-4.11 3.88-6.13 2.98-4.62 5.59-9.48 8.29-14.3 0.47-0.83 0.94-1.66 1.43-2.51 0.42-0.75 0.85-1.5 1.28-2.28 1.18-1.76 1.18-1.76 3.18-2.76 0.43-0.89 0.86-1.77 1.31-2.69 1.34-2.63 2.43-4.32 4.31-6.5 2.52-2.63 2.52-2.63 3.38-5.81 0.98-1.02 1.98-2.02 3-3 1.57-2.06 3.08-4.16 4.6-6.26 1.4-1.74 1.4-1.74 3.4-2.74 0.99-1.76 1.98-3.52 2.9-5.31 1.1-1.69 1.1-1.69 4.1-3.69l1-2c1-2 1-2 4-4 0.67-1.33 1.33-2.67 2-4 1.55-1.46 1.55-1.46 3.31-2.81 2.48-2.03 4.28-3.87 6-6.56 2.73-4.1 6.41-6.7 10.3-9.67 2.09-1.7 3.68-3.3 5.35-5.4 3.31-4.15 7.42-7.26 11.6-10.5 1.97-1.6 3.73-3.2 5.49-5.02 4.84-4.22 9.99-8.01 15.2-11.8 2.2-1.67 4.32-3.36 6.41-5.16 2.44-2 2.44-2 5.44-3 0.43-0.43 0.86-0.87 1.31-1.31 3.1-3.1 6.55-5.31 10.7-6.69 0.41-0.43 0.82-0.87 1.25-1.31 3.98-3.84 13-9.69 18.8-9.69l1-3c2.26-1.02 2.26-1.02 5-2 1.61-0.85 3.22-1.73 4.81-2.63 11.1-6.1 22.3-11.6 34.1-16.1 2.95-1.11 2.95-1.11 5.03-2.21 2.11-1.04 4.2-1.83 6.42-2.61 0.83-0.29 1.66-0.57 2.51-0.87 1.31-0.45 1.31-0.45 2.65-0.91 0.89-0.32 1.79-0.63 2.71-0.95 6.58-2.28 13.2-4.51 19.8-6.68 1.01-0.34 2.02-0.69 3.07-1.04 2.31-0.76 4.56-1.41 6.93-1.96 1.02-0.24 2.04-0.47 3.09-0.72 2.27-0.52 4.54-1.04 6.81-1.56 1.67-0.39 3.33-0.78 4.99-1.21 2.3-0.56 4.59-1.01 6.92-1.45 0.91-0.17 1.82-0.34 2.76-0.52 0.95-0.18 1.89-0.36 2.87-0.54 1.87-0.35 3.74-0.71 5.62-1.06 0.82-0.16 1.65-0.31 2.51-0.48 1.64-0.31 3.27-0.64 4.91-0.97 4.62-0.9 9.29-1.41 14-1.99 1-0.13 2-0.26 3.04-0.39 15.9-2 31.6-2.35 47.6-2.36z" fill="#000002"/>
<path transform="translate(791 237)" d="m0 0c3.48 0.01 6.96 0 10.4-0.01 11.1-0.01 22 0.24 33.1 1.16 0.94 0.08 1.88 0.16 2.85 0.24 4.73 0.44 8.84 1.21 13.3 2.87 2.61 0.37 5.2 0.68 7.82 0.94 5.25 0.58 10 1.44 15 3.34 3.78 1.22 7.69 1.66 11.6 2.19 2.6 0.53 2.6 0.53 5.6 2.53 1.45 0.47 2.91 0.89 4.38 1.25 0.84 0.22 1.68 0.43 2.54 0.66 0.88 0.21 1.75 0.43 2.65 0.65l5.19 1.32c0.76 0.19 1.53 0.38 2.32 0.58 1.92 0.54 1.92 0.54 3.92 1.54v2c1.55 0.19 1.55 0.19 3.13 0.38 3.49 0.56 6.56 1.41 9.87 2.62v2c1.24 0.21 2.48 0.41 3.75 0.63 6.29 1.41 11.6 4.35 17.2 7.37 1.39 0.73 2.78 1.46 4.16 2.18 3.64 1.92 7.27 3.85 10.9 5.79 1.68 0.89 3.37 1.78 5.05 2.66 6.89 3.65 13.7 7.59 19.9 12.4v2c0.73 0.27 1.45 0.54 2.2 0.81 2.77 1.18 5.11 2.53 7.62 4.19 0.79 0.52 1.58 1.03 2.39 1.56 0.59 0.48 1.18 0.95 1.79 1.44v2c0.73 0.26 1.45 0.52 2.2 0.78 2.92 1.27 5.11 2.76 7.62 4.72 0.79 0.61 1.58 1.22 2.39 1.84 0.59 0.55 1.18 1.1 1.79 1.66v2h2v2c0.54 0.23 1.08 0.45 1.63 0.69 4.52 2.5 7.99 5.74 11.2 9.69 2.18 2.63 4.45 4.85 7.06 7.06 3.46 2.94 6.42 6.09 9.33 9.57 1.78 2.1 1.78 2.1 4.1 4.3 2.96 3.03 5.54 6.22 8.13 9.57 0.46 0.58 0.92 1.17 1.4 1.77 2.34 3.01 4.61 6.04 6.8 9.16 2.15 3.18 2.15 3.18 4.68 5.44 3.15 3.3 5.34 6.85 7.73 10.7 1.92 3.07 3.92 6.05 5.96 9.03 5.76 8.64 10.4 17.8 15 27.1 1.98 3.99 4.04 7.91 6.22 11.8 6.06 11 9.69 23.2 13.8 35.1 0.33 0.95 0.66 1.9 1.01 2.88 2.41 7.04 4.36 14.1 6.06 21.4 0.25 1.09 0.51 2.18 0.78 3.31 3.53 15.1 7.15 30.8 7.15 46.4h-127c1.09-4.35 1.88-5.05 5-8 12.7-14.9 15.5-31.2 15-50 0-0.82-0.01-1.64-0.01-2.49-0.27-5.61-1.87-10.5-3.8-15.8-0.25-0.67-0.5-1.35-0.75-2.04-1.68-4.31-3.8-7.89-6.44-11.7l-1-3c-1.64-1.69-3.31-3.35-5-5-0.88-1.1-1.75-2.2-2.62-3.31-11.3-13.3-26.7-17.9-43.4-19.7-10-0.79-20 0.76-30 2v2c-1.98 0.33-3.96 0.66-6 1l-4-6c2.51-2.99 5.02-3.93 8.69-5.12 0.99-0.34 1.99-0.67 3.01-1.01 15.1-3.98 33.9-4.02 48.3 2.13 0.99 0.38 1.98 0.76 3 1.16 2.35 0.91 4.68 1.86 7 2.84v2c0.58 0.12 1.16 0.24 1.76 0.36 6.12 1.75 11 6.06 15.2 10.6 0.89 0.83 1.78 1.65 2.69 2.5 2.29 2.47 3.31 4.32 4.31 7.5h2c1.48 2.08 1.48 2.08 3.07 4.81 0.52 0.9 1.05 1.79 1.59 2.71 1.34 2.48 1.34 2.48 2.34 5.48 3.42 0.17 3.42 0.17 7 0 2.19-1.8 2.19-1.8 2.38-4.24-0.51-3.75-2.17-5.83-4.38-8.88-4-5.57-4-5.57-4-8.88-0.99-0.33-1.98-0.66-3-1v-2c-0.89-0.34-0.89-0.34-1.81-0.69-2.19-1.31-2.19-1.31-3.5-3.68-1.87-2.91-3.68-3.97-6.77-5.44-1.92-1.19-1.92-1.19-4.2-3.59-3.01-2.88-6.08-4.51-9.84-6.16-0.66-0.3-1.33-0.6-2.01-0.9-18.9-8.38-40.3-11.7-60.9-7.54l-2 2c-3.09 0.87-6.21 1.53-9.34 2.22-0.88 0.26-1.75 0.52-2.66 0.78l-1 2c-4.56-1.47-5.92-5.02-8-9-1.34-2.33-2.69-4.66-4.04-6.98-0.96-2.02-0.96-2.02-0.96-5.02h-2c-10-17.6-10-17.6-10-21h-2c-0.38-0.8-0.77-1.59-1.17-2.41-3.27-6.8-3.27-6.8-7.2-13.2-1.63-2.38-1.63-2.38-1.63-4.38h-2v-2c-0.84-0.25-1.69-0.49-2.56-0.75-3.07-1.12-5.6-2.52-8.41-4.18-8.1-4.29-17.1-6.2-26-8.07v4c1.11 0.23 2.23 0.46 3.37 0.7 18.9 4.09 18.9 4.09 26.1 10.5 1.87 3.36 2.78 6.69 3.79 10.4 1.04 3.24 2.8 5.66 4.77 8.42 0.64 1.21 1.25 2.44 1.85 3.67 2.09 4.26 4.37 8.39 6.72 12.5 0.38 0.68 0.77 1.37 1.17 2.07 1.61 2.87 3.25 5.71 4.97 8.52 1.54 2.64 2.41 5.3 3.29 8.22h2c0.44 1.05 0.87 2.1 1.32 3.19 1 2.36 2.04 4.41 3.37 6.62 1.31 2.19 1.31 2.19 1.31 4.19-2.68 1.95-5.29 3.68-8.31 5.06-2.05 0.89-2.05 0.89-2.69 3.94-1.62 1.71-3.29 3.37-5 5-2.36 2.3-4.15 4.24-6 7h-2c-0.4 1.09-0.4 1.09-0.81 2.2-1.16 2.74-2.52 5.05-4.12 7.55-2.45 3.99-4.14 7.76-5.43 12.2-0.64 2.01-0.64 2.01-1.64 3.92-3.6 7.56-3.18 17.1-3.18 25.3-0.01 1.24-0.01 1.24-0.01 2.51-0.23 10.1-0.23 10.1 3.19 19.2 1.98 0.36 1.98 0.36 4.13 0.19 1.92-0.09 1.92-0.09 3.87-0.19-0.16-1.1-0.32-2.2-0.48-3.34-2.95-23.8 1.12-46 15.5-65.7 2.63-2.87 2.63-2.87 5-5 0.81-0.82 1.61-1.65 2.44-2.5 7.23-7.06 7.23-7.06 11.6-8.5 3 3.36 3 3.36 3 6-1.42 2.85-3.4 4.22-6 6h-2l-1 3c-1.13 1.1-2.26 2.2-3.4 3.29-13.4 14.3-18.2 32.7-17.9 51.8 0.7 17.3 7.42 32 19.6 44.2l1.62 1.62v1h-196l2-4c0.31-0.68 0.62-1.36 0.94-2.06 1.06-1.94 1.06-1.94 2.47-3.32 1.69-1.72 2.84-3.44 4.09-5.49 0.65-1.07 0.65-1.07 1.31-2.15 0.39-0.65 0.79-1.31 1.19-1.98 0.54-0.84 1.08-1.69 1.63-2.56 1.72-3.06 3.04-6.19 4.37-9.44 1.58 0.04 1.58 0.04 3.18 0.07 1.38 0.02 2.76 0.04 4.14 0.06 0.69 0.01 1.38 0.03 2.09 0.05 3.76 0.03 5.38-0.04 8.59-2.18 1.01-3.01 1.31-5.54 1.57-8.69 0.12-1.49 0.12-1.49 0.25-3.01 0.06-0.76 0.12-1.52 0.18-2.3h-2v-2l-14-1c-1.71-4.27-2.6-8.03-3.31-12.5-1.14-6.68-2.98-12.6-5.6-18.8-0.91-2.23-1.58-4.32-2.09-6.67h-2c-1.46-2.65-2-3.89-2-7-0.99-0.33-1.98-0.66-3-1v-2c-0.99-0.33-1.98-0.66-3-1-1.2-1.46-2.4-2.93-3.58-4.41-2.29-2.57-5.05-4.28-7.92-6.15-4.29-2.81-8.15-5.51-11.5-9.44 0.26-2.34 0.6-4.68 1-7-1.01-4.1-2.42-6.61-6-9-3.02-0.54-5.01-0.63-7.65 1.06-4.25 3.83-5.39 7.37-6.35 12.9-0.98-0.03-1.96-0.07-2.97-0.1-13-0.32-24.7 1.77-37 6.1h-3v3c-1.27 0.65-2.54 1.29-3.81 1.94-0.71 0.36-1.41 0.72-2.14 1.09-2.05 0.97-2.05 0.97-5.05 1.97-0.43 0.87-0.43 0.87-0.87 1.75-1.19 2.38-2.66 3.81-4.56 5.64-6.88 7.09-11.5 14.5-14.9 23.7-0.85 2.32-1.77 4.61-2.7 6.9h-2c0.19 0.76 0.37 1.53 0.57 2.31 0.58 4.97 0.19 9.75-0.57 14.7-1 1-1 1-2.91 1.1-1.23-0.02-1.23-0.02-2.49-0.04-0.89 0-1.78-0.01-2.7-0.02-1.88-0.03-3.77-0.05-5.66-0.08-0.89-0.01-1.78-0.01-2.7-0.02-1.23-0.02-1.23-0.02-2.49-0.04-2.11-0.03-2.11-0.03-4.05 1.1-0.04 2-0.04 4 0 6 1.61 1.61 3.4 1.19 5.62 1.25 0.94 0.03 1.87 0.06 2.84 0.1 1.98 0.06 3.97 0.11 5.95 0.17 0.94 0.03 1.87 0.07 2.84 0.1 0.86 0.03 1.73 0.05 2.61 0.08 2.14 0.3 2.14 0.3 4.14 2.3 0.37 2 0.7 4 1 6 0.6 2.02 1.28 4.02 2 6 0.26 0.74 0.51 1.49 0.78 2.25 2.13 5.83 4.93 10.6 8.64 15.5 1.44 2.02 2.55 3.98 3.58 6.23h2l2 4c-20.3 0.02-40.6 0.04-61 0.05-9.44 0.01-18.9 0.01-28.3 0.03-8.22 0.01-16.4 0.01-24.7 0.01-4.36 0.01-8.71 0.01-13.1 0.02-4.1 0-8.19 0.01-12.3 0-1.51 0-3.02 0.01-4.53 0.01h-6.14-3.49c-2.56-0.12-2.56-0.12-3.56-1.12-1.26-17.7-1.26-17.7 1.96-23.8 1.63-3.42 1.86-7.1 2.36-10.8 1.74-12 4.87-23.6 8.88-35 0.67-1.94 1.3-3.89 1.92-5.84 2.14-6.7 4.47-13 7.78-19.2 1.04-2.12 1.75-4.11 2.42-6.36 4.14-13.2 12.1-25.8 18.7-37.9 0.36-0.66 0.72-1.33 1.09-2.01 2.68-4.87 2.68-4.87 4.91-5.99 0.59-1.21 0.59-1.21 1.19-2.44 1.99-3.91 4.35-7.32 6.9-10.9 1.31-1.83 2.59-3.68 3.85-5.55 0.62-0.91 1.24-1.82 1.88-2.75 0.56-0.84 1.12-1.68 1.7-2.54 0.74-0.91 0.74-0.91 1.48-1.84h2c0.31-1.02 0.31-1.02 0.63-2.06 1.8-3.86 4.27-7.02 7.37-9.94h2c0.23-0.72 0.46-1.44 0.69-2.19 1.59-3.39 3.63-5.18 6.31-7.81 0.95-1.02 1.9-2.05 2.84-3.09 5.44-6.01 10.9-11.8 17.2-16.9 1.26-1.06 2.51-2.12 3.75-3.19 0.58-0.49 1.15-0.98 1.74-1.48 1.19-1.05 2.33-2.15 3.45-3.27 2.01-2.01 4.07-3.91 6.19-5.81 0.68-0.61 1.36-1.23 2.07-1.86 1.8-1.39 1.8-1.39 3.8-1.39v-2c1.73-0.94 3.45-1.89 5.18-2.83 1.9-1.22 3.24-2.57 4.82-4.17 10.1-7.63 21-14.4 31.9-20.7 2.12-1.26 2.12-1.26 4.11-2.86 1.97-1.43 3.62-2.17 5.91-2.93 2.51-0.88 4.45-1.73 6.75-3.12 2.47-1.47 4.49-1.98 7.31-2.38v-2c0.84-0.33 0.84-0.33 1.7-0.66 5.02-1.99 9.98-4.06 14.9-6.21 21.8-9.37 21.8-9.37 32.2-10.7 2.42-0.33 2.42-0.33 5.13-2.42 2.01-0.62 2.01-0.62 4.34-1.15 1.3-0.3 1.3-0.3 2.63-0.6 0.94-0.21 1.88-0.41 2.85-0.62 0.97-0.22 1.95-0.44 2.96-0.66 6.76-1.48 13.5-2.87 20.4-4.16 0.79-0.15 1.59-0.31 2.41-0.47 17.2-3.12 34.4-3.66 51.8-3.6z" fill="#FBFDFD"/>
<path transform="translate(450,744)" d="m0 0h693c-6 14-6 14-10 20-0.96 1.72-1.9 3.45-2.81 5.19-4.6 8.52-9.9 16.5-15.5 24.4-1.22 1.74-2.41 3.5-3.57 5.28-2.64 3.89-5.5 7.56-8.4 11.2-2.74 3.52-5.24 7.14-7.71 10.9-2.12 2.37-2.12 2.37-4 4h-2c-0.36 0.8-0.36 0.8-0.74 1.62-3.29 6.21-7.45 12.9-14.5 15.1-6.71 1.14-13.5 0.89-20.3 0.79-2.31 0.01-4.63 0.03-6.94 0.05-6.35 0.04-12.7 0-19-0.04-6.15-0.04-12.3-0.02-18.4 0.01-13.3 0.04-26.7 0.02-40-0.04-11.7-0.04-23.3-0.06-35-0.06h-2.35-9.43c-29.5 0.02-59-0.04-88.4-0.13-26.2-0.08-52.4-0.11-78.6-0.09h-5.05-2.52c-4.19 0-8.37 0-12.6 0.01h-2.5c-21.9 0.01-43.8-0.02-65.7-0.05-0.77 0-1.55-0.01-2.36-0.01h-2.35-2.35c-1.56-0.01-3.13-0.01-4.69-0.01-10.9-0.02-21.8-0.03-32.7-0.02-14 0-28.1-0.02-42.1-0.08-6.77-0.03-13.5-0.05-20.3-0.03-6.2 0.01-12.4-0.01-18.6-0.06-2.24-0.01-4.49-0.01-6.73 0-3.04 0.02-6.09-0.01-9.13-0.05-0.87 0.02-1.75 0.03-2.65 0.05-6.02-0.14-9.09-1.94-13.4-6.05-1.6-1.89-1.6-1.89-2.64-3.97-0.97-2.26-0.97-2.26-3.9-4.36-2.94-2.46-4.18-4.3-6.06-7.56-0.74-0.72-1.49-1.44-2.25-2.19-3.11-3.18-5.47-6.58-7.97-10.2-2.09-3.02-4.33-5.91-6.62-8.78-1.25-1.93-1.74-3.55-2.16-5.79h-2c-1.46-2.69-1.46-2.69-2.93-5.37-0.98-1.8-0.98-1.8-3.07-2.63-0.86-1.75-0.86-1.75-1.75-4-1.85-4.35-4.18-8.04-6.86-11.9-4.39-6.55-4.39-6.55-4.39-10.1h-2c-0.27-0.6-0.53-1.21-0.8-1.83-0.36-0.8-0.71-1.6-1.08-2.42-0.34-0.79-0.69-1.58-1.05-2.39-1.03-2.36-1.03-2.36-2.27-4.53-0.39-0.91-0.39-0.91-0.8-1.83l1-2z" fill="#FBFDFD"/>
<path transform="translate(824 198)" d="m0 0c1.23 0.08 2.47 0.16 3.74 0.24 12.4 0.88 24.7 2.43 36.9 5.2 0.97 0.21 1.93 0.43 2.92 0.65 2.99 0.67 5.98 1.35 8.96 2.03 0.99 0.23 1.97 0.46 2.99 0.69 2.86 0.66 5.72 1.33 8.57 2 0.86 0.2 1.73 0.41 2.61 0.62 0.81 0.19 1.62 0.38 2.46 0.58 0.7 0.17 1.4 0.34 2.13 0.51 2.79 0.75 5.5 1.68 8.24 2.6 2.03 0.67 4.07 1.33 6.11 1.99 2.36 0.78 4.72 1.55 7.08 2.33 1.17 0.38 2.33 0.75 3.54 1.14 6.49 2.14 12.7 4.5 18.9 7.45 2.3 1.06 4.61 1.97 6.99 2.85 6.32 2.47 12.2 5.78 18.2 8.99 9.37 5.18 9.37 5.18 19.2 9.25v2c1.98 0.66 3.96 1.32 6 2v2c0.74 0.27 1.49 0.54 2.25 0.82 2.64 1.14 4.47 2.47 6.75 4.18 0.85 0.33 1.69 0.66 2.56 1 2.44 1 2.44 1 3.83 2.41 2.35 2.33 5.12 3.76 7.97 5.41 0.54 0.39 1.08 0.78 1.64 1.18v2c0.7 0.25 1.4 0.5 2.12 0.76 3.28 1.42 6.02 3.12 8.88 5.24v2c2.47 1 2.47 1 5 2v2c0.53 0.23 1.05 0.45 1.6 0.67 3.28 1.82 6.01 4.21 8.84 6.65 0.56 0.47 1.12 0.94 1.69 1.43 3.45 2.94 6.68 6.03 9.87 9.25 1.11 0.96 2.24 1.9 3.38 2.82 3.2 2.7 5.84 5.67 8.54 8.86 2.06 2.3 4.23 4.46 6.44 6.61 5.14 4.99 9.55 10 13.6 15.9 2.22 3.09 4.61 6.01 7.06 8.91 19.9 23.7 19.9 23.7 19.9 29.9h2c0.28 0.52 0.56 1.03 0.85 1.55 3.07 5.58 6.26 11.1 9.5 16.6 4.65 8.16 4.65 8.16 4.65 11.9h2c2.52 4.18 4.46 8.09 6.09 12.7 1.53 3.86 3.49 7.5 5.41 11.2 1.75 3.64 3.14 7.33 4.5 11.1 0.67 1.85 0.67 1.85 1.36 3.73 6.15 17.2 11.9 34.2 15.2 52.2 0.48 2.22 0.48 2.22 1.45 4.87 1.75 5.46 2.44 11.1 3.32 16.8 0.33 2.16 0.68 4.31 1.03 6.46l0.66 4.2c0.19 1.25 0.39 2.5 0.59 3.79 0.5 4.63 0.43 9.31 0.43 14h-27c-2.25-10.1-2.25-10.1-3-14.8-0.16-1.01-0.33-2.02-0.5-3.06-0.16-1.02-0.33-2.05-0.5-3.1-2.56-17.1-2.56-17.1-6.93-33.8-1.7-5.1-3.18-10.3-4.69-15.4-0.33-1.09-0.65-2.19-0.99-3.31-0.31-1.05-0.61-2.1-0.93-3.17-0.28-0.95-0.56-1.91-0.85-2.89-0.61-2.44-0.61-2.44-0.61-5.45h-2c-0.26-0.78-0.26-0.78-0.52-1.58-1.78-5.42-3.7-10.8-5.71-16.1-0.77-2.28-0.77-2.28-0.77-4.29h-2c-0.21-0.64-0.42-1.28-0.63-1.94-3.33-9.77-8.18-18.5-13.6-27.3-2.33-3.82-4.19-7.69-5.95-11.8-2.16-4.93-5.35-8.98-8.65-13.2-1.21-1.76-1.21-1.76-1.21-3.77h-2c-0.27-0.59-0.54-1.19-0.81-1.81-1.06-2.19-1.06-2.19-2.63-3.6-1.59-1.62-2.56-3.13-3.68-5.09-3.9-6.39-8.71-12.4-14.1-17.6-1.79-1.85-1.79-1.85-2.79-4.86-1.64-1.68-3.31-3.35-5-5-0.9-1.17-0.9-1.17-1.81-2.37-2.51-3-5.28-5.4-8.25-7.94-2.43-2.11-4.66-4.41-6.94-6.69-2.13-1.83-4.27-3.65-6.43-5.44-0.52-0.52-1.03-1.03-1.57-1.56v-2c-0.99-0.32-1.98-0.65-3-1v-2c-0.59-0.27-1.18-0.54-1.79-0.82-2.15-1.14-3.8-2.36-5.64-3.93-0.65-0.54-1.29-1.08-1.95-1.64-0.68-0.57-1.36-1.14-2.06-1.73-6.14-5.11-12.3-9.45-19.3-13.4-0.75-0.49-1.5-0.98-2.28-1.49v-2c-0.59-0.12-1.18-0.24-1.79-0.37-3.52-1-6.3-3.24-9.27-5.31-6.14-4.18-12.4-7.89-18.9-11.3-1.23-0.66-2.46-1.33-3.7-2-9.05-4.9-18.2-9.21-27.8-13-1.89-0.76-3.77-1.57-5.64-2.4-5.02-2.16-10.2-3.84-15.4-5.56-1.07-0.36-2.14-0.71-3.24-1.08-6.8-2.23-13.6-4.32-20.5-6.05-2.44-0.61-4.88-1.24-7.31-1.89-9.81-2.56-19.6-4.32-29.6-5.73-2.19-0.32-4.39-0.64-6.58-0.96-1.96-0.29-3.93-0.57-5.89-0.85-1.95-0.29-3.9-0.62-5.83-1.04-11.3-2.11-23.4-1.63-34.8-1.59h-2.17c-8.49 0.03-17 0.09-25.5 0.5-1.04 0.05-1.04 0.05-2.1 0.09-4.49 0.27-8.73 1.06-13.1 1.99-6.98 1.34-14.1 2.13-21.1 3.04-1.81 0.25-1.81 0.25-3.66 0.5-1.1 0.15-2.19 0.29-3.32 0.44-2.95 0.43-2.95 0.43-5.75 2.56-2.77 0.69-5.52 1.31-8.31 1.88-13.6 2.89-26.9 6.56-39.7 12.1l-5.7 2.13c-7.4 2.82-14.5 5.84-21.3 9.87-1.11 0.44-1.11 0.44-2.25 0.89-4.05 1.64-7.89 3.7-11.8 5.72-2.88 1.47-4.73 2.39-8 2.39v3c-0.95 0.36-1.9 0.71-2.88 1.07-4.36 1.84-7.94 4.59-11.7 7.36-2.68 1.77-5.33 2.64-8.38 3.57-0.33 1-0.66 1.99-1 3-1.7 1.02-3.41 2.03-5.16 2.95-2.08 1.12-2.08 1.12-4.59 3.31-2.25 1.74-2.25 1.74-5.25 1.74-0.19 0.56-0.37 1.12-0.56 1.69-2.08 3.35-5.05 5.36-8.44 7.31h-2c-0.19 0.56-0.37 1.12-0.56 1.69-1.79 2.87-3.87 4.16-6.64 6.03-2.55 1.82-4.62 4.04-6.8 6.28-1.67 1.34-3.33 2.67-5 4-4.04 3.82-7.63 7.99-11.2 12.2-0.58 0.59-1.17 1.19-1.77 1.79h-2c-0.1 0.58-0.2 1.16-0.3 1.76-0.84 2.7-2.05 4.1-3.95 6.18-0.58 0.65-1.17 1.3-1.77 1.97-1.42 1.5-2.88 2.97-4.36 4.41-2.99 3.07-5.62 6.31-8.24 9.68-0.48 0.61-0.96 1.21-1.45 1.83-2.07 2.65-3.95 5.2-5.64 8.11-0.43 0.68-0.85 1.36-1.29 2.06h-2c-0.1 0.56-0.21 1.12-0.31 1.69-0.83 2.79-2.03 4.93-3.69 7.31h-2c-0.26 0.71-0.52 1.42-0.79 2.15-1.29 3.04-2.83 5.77-4.52 8.61-2.57 4.34-5.09 8.7-7.52 13.1-0.76 1.37-1.52 2.72-2.31 4.07-3.73 6.49-6.84 13.3-9.99 20.1-1.14 2.44-2.31 4.86-3.52 7.27-2.5 5.02-4.23 10.2-5.79 15.6-1.24 4.26-2.77 8.32-4.5 12.4-2.99 7.64-5.1 15.4-7.06 23.4-0.26 1.06-0.52 2.11-0.79 3.19-1.68 6.82-3.26 13.6-4.67 20.5-0.31 1.49-0.64 2.99-1.04 4.46-0.55 2.36-0.79 4.64-1 7.06-0.08 0.92-0.17 1.85-0.25 2.8-0.17 1.95-0.33 3.89-0.5 5.84-0.08 0.92-0.17 1.85-0.25 2.8-0.11 1.26-0.11 1.26-0.22 2.55-0.28 2.09-0.28 2.09-1.28 4.09h-31c-1.24-2.48-1.13-4.22-1.12-7-0.01-0.88-0.01-1.77-0.01-2.68 0.13-2.32 0.13-2.32 1.13-4.32 0.35-2.15 0.65-4.3 0.94-6.46 0.17-1.3 0.34-2.59 0.52-3.92 0.18-1.37 0.36-2.74 0.54-4.12 0.35-2.67 0.7-5.35 1.06-8.03 0.16-1.19 0.31-2.38 0.48-3.61 0.46-2.86 0.46-2.86 1.46-4.86h2c-0.18-0.54-0.36-1.08-0.55-1.64-1.32-6.9 1.5-14.8 3.83-21.3 1.06-2.97 1.86-6 2.72-9.03 1.21-3.79 2.56-7.51 3.94-11.2 1.33-3.62 2.51-7.23 3.56-10.9 1.12-3.86 2.6-7.24 4.48-10.8 1.09-2.18 1.96-4.38 2.83-6.66 2.36-6.01 5.29-11.7 8.22-17.4 1-1.99 1.98-3.99 2.95-5.99 3.9-7.99 8.08-15.5 13-22.9 0.82-1.28 1.63-2.57 2.44-3.87 0.38-0.62 0.77-1.24 1.17-1.87 1.88-3.05 3.76-6.09 5.64-9.13 1.03-1.67 1.03-1.67 2.08-3.37 1.62-2.59 1.62-2.59 2.67-4.76h2c0.2-0.66 0.41-1.33 0.62-2.02 1.89-4.07 4.58-7.18 7.44-10.6 0.88-1.06 0.88-1.06 1.77-2.14 1.17-1.42 2.35-2.84 3.53-4.26 2.21-2.66 4.39-5.35 6.58-8.04 13.4-16.4 13.4-16.4 18.1-17.9 0.29-0.57 0.58-1.15 0.88-1.74 2.24-4.49 6.37-7.48 10.1-10.7 2.46-2.12 4.63-4.2 6.62-6.75 2.54-3 4.99-4.86 8.38-6.82h2l2-4h2v-2c1.83-1.33 3.71-2.59 5.62-3.81 3.31-2.14 6.42-4.22 9.44-6.75 5.7-4.72 12-8.88 18.9-11.4v-2c1.98-0.65 3.96-1.31 6-2v-2c5.4-3.09 10.9-6 16.4-8.81 0.61-0.31 1.23-0.63 1.86-0.95 4.46-2.24 4.46-2.24 6.7-2.24v-2c0.97-0.44 1.93-0.89 2.93-1.35 1.31-0.61 2.63-1.22 3.95-1.83 0.68-0.32 1.36-0.64 2.07-0.96 3.9-1.82 7.74-3.72 11.6-5.73 3.9-1.99 7.14-2.84 11.5-3.13v-2c0.64-0.18 1.28-0.36 1.94-0.55 5.2-1.51 10.1-3.24 15.1-5.45 5.26-2.05 10.5-3.82 15.9-5.31 0.76-0.21 1.53-0.41 2.31-0.63 2.58-0.7 5.17-1.38 7.75-2.06 1.41-0.37 1.41-0.37 2.85-0.74 15.2-3.93 30.3-6.76 45.8-8.87 2.48-0.35 2.48-0.35 5.33-1.39 25.3-2.99 51.1-2.73 76.5-1.12z" fill="#FBFDFD"/>
<path transform="translate(507 596)" d="m0 0c1.64-0.01 3.27-0.02 4.91-0.03 2.33-0.02 4.66-0.03 6.98-0.03 0.71 0 1.41-0.01 2.14-0.02 3.69 0.02 6.26 0.34 9.43 2.26 1.99 0.23 1.99 0.23 4.06 0.25 7.66 0.74 14.5 4.74 19.6 10.4 1.14 1.43 2.24 2.89 3.32 4.38 0.7 0.95 1.4 1.91 2.13 2.89 6.12 8.72 8.26 15.5 8.18 26-0.01 1.19-0.01 1.19-0.02 2.4-0.25 12.7-5.93 21.7-14.4 30.9-1.93 1.75-1.93 1.75-4.93 2.75l-2 3c-2.3 1.07-4.64 2.08-7 3 0.27 0.61 0.53 1.23 0.81 1.87 1.64 4.31 2.9 8.71 4.19 13.1-3.88 1.93-8.67 1.22-12.9 1.25-1.02 0.02-2.03 0.04-3.08 0.06-0.97 0-1.94 0.01-2.95 0.01-0.89 0.01-1.78 0.02-2.7 0.03-2.8-0.43-3.64-1.13-5.33-3.35-0.24-0.74-0.48-1.47-0.72-2.23-1.02-3.12-1.78-4.6-4.28-6.77-6.16-1.51-12.7-1.16-19-1l-1 12c-3.63 0.22-7.25 0.42-10.9 0.62-1.03 0.06-2.06 0.13-3.13 0.2-1.48 0.07-1.48 0.07-2.99 0.15-0.91 0.05-1.82 0.11-2.76 0.16-2.24-0.13-2.24-0.13-4.24-2.13-0.2-3.13-0.28-6.16-0.26-9.29-0.01-0.96-0.01-1.92-0.01-2.92-0.01-3.19-0.01-6.38 0-9.58v-6.63c-0.01-4.64 0-9.28 0.01-13.9 0.01-5.96 0-11.9-0.01-17.9-0.01-4.57-0.01-9.14 0-13.7 0-2.19 0-4.39-0.01-6.59 0-3.07 0.01-6.13 0.02-9.2-0.01-0.92-0.01-1.83-0.01-2.78 0.04-6.28 0.04-6.28 2.27-8.5 2.65-0.34 5.2-0.53 7.87-0.63 0.84-0.04 1.68-0.07 2.55-0.11 8.7-0.32 17.4-0.4 26.1-0.44z" fill="#F7FAF9"/>
<path transform="translate(587 597)" d="m0 0h2.27c0.79-0 1.58-0.01 2.39-0.01 2.61-0.01 5.23-0.01 7.84-0.01 1.81 0 3.62-0.01 5.43-0.01 3.8-0.01 7.6-0.01 11.4-0.01 4.88 0 9.75-0.01 14.6-0.03 3.74-0.01 7.48-0.01 11.2-0.01 1.8 0 3.6-0.01 5.4-0.02 2.51-0.01 5.02 0 7.53 0 0.75 0 1.5-0.01 2.27-0.01 5.15 0.03 5.15 0.03 7.38 2.26 0.24 2.14 0.24 2.14 0.23 4.75 0 0.94-0.01 1.87-0.01 2.84-0.01 0.98-0.02 1.96-0.04 2.97v2.98c-0.04 7.32-0.04 7.32-1.18 8.46-1.84 0.09-3.69 0.11-5.53 0.11h-3.58c-1.29-0.01-2.57-0.01-3.9-0.02h-3.96c-3.48 0-6.97-0.01-10.4-0.02-3.55-0.01-7.11-0.02-10.7-0.02-6.97-0.02-14-0.03-20.9-0.05l1 21c4.84 0.2 4.84 0.2 9.77 0.4 3.12 0.13 6.23 0.26 9.34 0.4 2.17 0.09 4.34 0.18 6.51 0.27 3.11 0.12 6.23 0.26 9.34 0.39 0.97 0.04 1.95 0.08 2.95 0.12 1.35 0.06 1.35 0.06 2.73 0.12 0.79 0.03 1.59 0.07 2.41 0.1 1.95 0.2 1.95 0.2 3.95 1.2v21h-48l1 7c3.02 1 5.1 1.14 8.26 1.17 1.08 0.01 2.15 0.03 3.26 0.04 1.16 0.01 2.32 0.02 3.51 0.03 2.44 0.04 4.89 0.07 7.33 0.1 3.86 0.05 7.72 0.09 11.6 0.13 3.72 0.04 7.44 0.09 11.2 0.15 1.74 0.01 1.74 0.01 3.51 0.02 1.08 0.02 2.15 0.04 3.25 0.05 1.42 0.02 1.42 0.02 2.87 0.03 2.27 0.28 2.27 0.28 4.27 2.28 0.24 2.14 0.24 2.14 0.23 4.75 0 0.94-0.01 1.87-0.01 2.84-0.01 0.98-0.02 1.96-0.04 2.97v2.98c-0.04 7.32-0.04 7.32-1.18 8.46-2.56 0.09-5.09 0.12-7.64 0.11h-2.43c-2.65 0-5.31-0.01-7.97-0.02h-5.51c-4.84 0-9.69-0.01-14.5-0.02-4.94-0.01-9.88-0.02-14.8-0.02-9.7-0.02-19.4-0.03-29.1-0.05-2.51-9.68-2.28-19.2-2.23-29.1v-5.56c0-3.86 0.01-7.73 0.02-11.6 0.02-4.94 0.02-9.89 0.02-14.8 0-3.82 0.01-7.64 0.01-11.5 0.01-1.82 0.01-3.64 0.01-5.46 0-2.55 0.01-5.1 0.02-7.65v-2.25c0.09-14.2 0.09-14.2 7.39-14.2z" fill="#F7FAF9"/>
<path transform="translate(691 596)" d="m0 0c0.94-0.06 1.88-0.12 2.86-0.18 6.84-0.12 6.84-0.12 9.84 2.52 1.54 2.03 2.83 4.05 4.05 6.28 0.9 1.58 0.9 1.58 1.81 3.19 0.47 0.85 0.47 0.85 0.94 1.72 2.07 3.47 4.43 6.74 6.75 10 3.11 4.45 6.04 9 8.93 13.6 1.43 2.23 2.93 4.37 4.51 6.51 2.06 2.93 2.06 2.93 2.06 4.93h2v2h2c-0.16-0.83-0.32-1.67-0.49-2.54-1.62-11-0.5-22.8-0.14-33.9 0.04-1.11 0.07-2.22 0.1-3.36 0.04-1.04 0.08-2.07 0.12-3.14 0.03-0.93 0.06-1.86 0.09-2.81 0.32-2.26 0.32-2.26 2.32-4.26 2.14-0.24 2.14-0.24 4.75-0.23 0.94 0.01 1.88 0.01 2.84 0.01 0.98 0.01 1.96 0.02 2.97 0.04h2.98c7.32 0.04 7.32 0.04 8.46 1.18 0.1 3.17 0.13 6.32 0.11 9.48v3.02c0 3.3 0 6.61-0.01 9.92 0 2.28-0.01 4.57-0.01 6.85 0 6.03-0.01 12.1-0.02 18.1-0.01 6.14-0.02 12.3-0.02 18.4-0.01 12.1-0.03 24.1-0.05 36.2-3.08 0.06-6.17 0.1-9.25 0.13-1.31 0.03-1.31 0.03-2.64 0.05-0.85 0.01-1.69 0.01-2.56 0.02-0.78 0.01-1.55 0.02-2.35 0.03-2.53-0.26-4.06-0.86-6.2-2.23-1.73-2.28-3.28-4.52-4.81-6.93-0.44-0.68-0.88-1.35-1.33-2.05-1.3-2-2.58-4.01-3.86-6.02-0.65-1-1.29-2.01-1.96-3.05-1.69-2.64-3.37-5.29-5.04-7.95-1.69-2.67-3.39-5.34-5.09-8-1.45-2.27-2.88-4.53-4.32-6.8-0.82-1.29-1.64-2.59-2.46-3.88-0.4-0.63-0.79-1.25-1.2-1.9-0.95-1.49-1.94-2.95-2.93-4.42h-1v52h-23c-2.03-3.04-2.25-3.61-2.25-7.02-0.01-0.82-0.02-1.64-0.02-2.48 0-0.89 0.01-1.79 0.01-2.71 0-0.94-0.01-1.88-0.01-2.86-0.01-3.12 0-6.24 0-9.37v-6.49c0-4.54 0-9.08 0.01-13.6 0.01-5.83 0-11.7-0.01-17.5-0.01-4.48 0-8.95 0-13.4v-6.45c-0.01-3 0-6 0.01-9 0-0.9-0.01-1.79-0.01-2.71 0.07-9.67 4.21-8.83 12.5-9z" fill="#F7FAF9"/>
<path transform="translate(951 439)" d="m0 0c1.62-0 1.62-0 3.27-0.01 1.12 0.01 2.24 0.02 3.39 0.03 1.12-0.01 2.23-0.02 3.37-0.03 8.63 0.02 14.6 1.09 22.2 5.4 0.95 0.54 1.91 1.08 2.9 1.63 0.71 0.41 1.42 0.82 2.16 1.25v2c0.72 0.21 1.44 0.42 2.18 0.64 3.51 1.69 5.51 4.06 7.88 7.04 0.44 0.55 0.88 1.09 1.33 1.66 3.02 3.79 5.57 7.27 7.61 11.7 0.37 0.75 0.74 1.5 1.12 2.28 3.01 7.23 3.24 14 3.25 21.8 0.01 1.02 0.01 2.05 0.01 3.1-0.11 7.43-0.11 7.43-2.38 10.8-0.43 1.51-0.82 3.03-1.19 4.56-3.43 11.8-12.5 20.3-22.8 26.4-14.1 6.54-31.9 9.05-47 4-3.88-2.07-7.43-4.46-11-7-1.64-1.06-1.64-1.06-3.31-2.13-0.89-0.62-1.78-1.24-2.69-1.87-0.97-0.66-1.94-1.32-2.94-2-4.65-3.93-7.25-9.71-10.1-15-0.54-1.02-1.09-2.03-1.65-3.07-2.86-6.19-2.57-12.5-2.6-19.2-0.02-1-0.04-2-0.06-3.03-0.07-13.1 5.31-23.6 13.3-33.7h2l2-4h2v-2l4-1c0.35 0.59 0.7 1.18 1.07 1.8 0.49 0.83 0.98 1.65 1.49 2.51 0.54 0.9 1.08 1.81 1.63 2.74 2.42 3.94 4.99 7.77 7.59 11.6 0.4 0.77 0.8 1.55 1.22 2.35l-1 3h-2c-0.29 0.76-0.58 1.52-0.88 2.31-1.12 2.69-1.12 2.69-3.12 5.69-2.17 8.24-1.93 16.4 2 24 0.25 1.17 0.25 1.17 0.5 2.37 0.16 0.54 0.33 1.07 0.5 1.63 0.99 0.33 1.98 0.66 3 1 1 0.99 2 1.99 3 3 8.94 5.9 17.7 5.54 28 5v-2c1.57-1.01 1.57-1.01 3.69-2.13 5.64-3.39 7.95-7.9 10.6-13.8 1.77-8.05 0.67-14.3-2.44-21.9-0.87-2.25-0.87-2.25-0.87-4.25-0.6-0.25-1.2-0.5-1.81-0.75-2.19-1.25-2.19-1.25-3.5-3.22-3.3-3.97-8.78-4.36-13.7-5.03-2.42 0.18-4.84 0.39-7.25 0.62-3.54 0.1-3.54 0.1-6.75-0.62-3.75-3.86-5.81-8.17-8-13-0.83-1.61-1.66-3.21-2.5-4.82-0.5-1.05-0.99-2.1-1.5-3.18 4.67-3.81 8.69-5.26 14.7-5.27z" fill="#FBFDFD"/>
<path transform="translate(920,597)" d="m0 0c10.7-0.05 21.3-0.08 32-0.1 4.95-0.01 9.9-0.03 14.8-0.05 4.78-0.02 9.55-0.03 14.3-0.04 1.83 0 3.65-0.01 5.47-0.02 2.55-0.02 5.1-0.02 7.65-0.02 0.76 0 1.51-0.01 2.3-0.02 5.22 0.02 5.22 0.02 7.45 2.25 0.24 1.92 0.24 1.92 0.23 4.25 0 0.83 0 1.67-0.01 2.53-0.01 0.88-0.02 1.76-0.03 2.66v2.64c-0.05 6.5-0.05 6.5-1.19 9.92h-59l1 26c4.84 0.07 4.84 0.07 9.77 0.15 3.12 0.05 6.23 0.11 9.35 0.17 2.17 0.04 4.33 0.07 6.5 0.1 3.12 0.05 6.23 0.11 9.34 0.17 0.97 0.01 1.95 0.02 2.95 0.03 1.35 0.03 1.35 0.03 2.73 0.06 0.8 0.01 1.59 0.03 2.41 0.04 1.95 0.28 1.95 0.28 3.95 2.28 0.23 1.97 0.23 1.97 0.2 4.35-0.01 0.85-0.02 1.7-0.02 2.58-0.03 1.33-0.03 1.33-0.06 2.69 0 0.9-0.01 1.8-0.02 2.72-0.03 2.22-0.06 4.44-0.1 6.66-2.82 0.8-5.37 1.14-8.29 1.19-0.84 0.02-1.68 0.03-2.54 0.05-0.9 0.01-1.79 0.03-2.71 0.04-0.93 0.02-1.85 0.04-2.8 0.06-3.96 0.08-7.91 0.14-11.9 0.21-2.89 0.05-5.77 0.11-8.66 0.17-0.9 0.01-1.8 0.03-2.73 0.04-4.03-0.32-4.03-0.32-7.41 1.24-0.16 2-0.25 4-0.32 6-0.04 1.22-0.08 2.43-0.12 3.69-0.04 1.27-0.08 2.55-0.12 3.87-0.05 1.29-0.09 2.57-0.13 3.89-0.11 3.18-0.21 6.37-0.31 9.55-3.44 0.23-6.87 0.43-10.3 0.62-0.98 0.07-1.96 0.13-2.96 0.2-0.94 0.05-1.88 0.1-2.84 0.16-1.3 0.08-1.3 0.08-2.62 0.16-2.27-0.14-2.27-0.14-5.27-2.14-0.37-1.82-0.37-1.82-0.36-4.07 0-0.86-0.01-1.71-0.01-2.59 0.01-0.94 0.02-1.87 0.03-2.84v-2.98c0-3.27 0.02-6.54 0.05-9.81 0-2.26 0.01-4.52 0.01-6.78 0.01-5.97 0.04-11.9 0.07-17.9 0.03-6.08 0.05-12.2 0.06-18.2 0.04-11.9 0.09-23.9 0.15-35.8z" fill="#F7FAF9"/>
<path transform="translate(1018,597)" d="m0 0c4.25-0.15 8.5-0.23 12.8-0.31 1.81-0.07 1.81-0.07 3.66-0.13 1.16-0.02 2.32-0.03 3.51-0.05 1.07-0.02 2.14-0.05 3.24-0.08 2.84 0.57 2.84 0.57 5.15 2.99 1.31 2 2.57 3.96 3.69 6.08 1.23 2.22 2.4 4 4 6 1.87 2.34 3.34 4.72 4.8 7.34 1.55 2.8 3.16 5.57 4.76 8.35 0.58 1 1.16 2.01 1.76 3.04 1.6 2.74 1.6 2.74 3.39 5.01 1.29 1.76 1.29 1.76 1.29 3.76h2l2 2c3.59-5.27 6.91-10.7 10.2-16.1 9.82-15.9 9.82-15.9 14.8-22.9 0.57-0.86 1.14-1.72 1.73-2.61 2.27-2.39 2.27-2.39 5.08-2.99 1.05 0.01 2.11 0.03 3.2 0.04 1.15 0.01 2.3 0.02 3.49 0.02 1.79 0.05 1.79 0.05 3.62 0.1 1.21 0.01 2.42 0.01 3.66 0.02 8.93 0.13 8.93 0.13 11.2 2.42-0.46 0.64-0.92 1.28-1.39 1.94-3.48 4.9-6.74 9.78-9.61 15.1h-2c-0.09 0.55-0.18 1.11-0.27 1.68-0.95 3.02-2.55 5-4.48 7.51-2.5 3.35-4.8 6.61-6.75 10.3-2.47 4.68-5.55 8.8-8.73 13-1.51 2.12-2.7 4.12-3.77 6.48h-2c-0.08 0.54-0.16 1.07-0.25 1.62-1.01 3.21-2.87 5.61-4.75 8.38-1.16 3.49-1.21 6.39-1.32 10.1-0.03 1.03-0.03 1.03-0.06 2.08l-0.18 6.54c-0.05 1.48-0.09 2.96-0.13 4.44-0.11 3.62-0.21 7.25-0.31 10.9-3.81 0.03-7.62 0.05-11.4 0.06-1.09 0.01-2.17 0.02-3.3 0.03-1.03 0-2.07 0-3.13 0.01-0.96 0-1.92 0.01-2.91 0.01-2.22-0.11-2.22-0.11-3.22-1.11-0.1-2.19-0.13-4.37-0.14-6.56l-0.06-4.11c-0.03-2.15-0.05-4.31-0.05-6.46-0.01-8.74-0.41-15.6-5.75-22.9-0.89-1.36-1.79-2.73-2.68-4.09-1.33-1.95-2.67-3.9-4.01-5.84-3.31-4.87-3.31-4.87-3.31-7.07h-2l-2-6h-2c-2.39-3.56-4.54-7.2-6.67-10.9-3.45-6.02-7.07-11.6-11.3-17.1-1.53-1.98-2.76-3.81-4-6 0.4-2.17 0.4-2.17 1-4z" fill="#F7FAF9"/>
<path transform="translate(785 597)" d="m0 0c0.8 0.01 1.61 0.01 2.43 0.02 0.85 0 1.7-0.01 2.57-0.01 2.8 0 5.6 0.01 8.41 0.02h5.83c4.07 0 8.15 0.01 12.2 0.02 5.24 0.02 10.5 0.02 15.7 0.02 4.01 0 8.03 0.01 12 0.02h5.79c2.69 0.01 5.39 0.01 8.08 0.02h2.43c5.52 0.04 5.52 0.04 7.75 1.15l-1 23h-32v78h-23c-1.17-2.35-1.2-3.92-1.31-6.54-0.07-1.41-0.07-1.41-0.13-2.85-0.04-1.03-0.08-2.06-0.12-3.12-0.04-1.07-0.09-2.13-0.13-3.24-0.43-12-0.38-24.1-0.31-36.1 0.03-4.35 0.05-8.7 0.06-13 0.01-0.99 0.02-1.97 0.03-2.99 0-0.9 0.01-1.81 0.01-2.74 0.01-0.79 0.01-1.58 0.02-2.4 0.01-2.02 0.01-2.02-1.12-3.94-0.9-0.02-1.79-0.04-2.72-0.06-3.33-0.08-6.66-0.16-9.99-0.26-1.44-0.04-2.88-0.07-4.32-0.1-2.07-0.05-4.14-0.11-6.21-0.17-1.25-0.03-2.49-0.06-3.78-0.09-2.98-0.32-2.98-0.32-4.98-2.32-0.26-2.03-0.26-2.03-0.26-4.5-0.01-0.89-0.01-1.77-0.01-2.69 0.01-1.39 0.01-1.39 0.02-2.81-0.01-0.93-0.01-1.86-0.02-2.81 0-0.89 0-1.78 0.01-2.69v-2.47c0.61-4.78 3.99-4.27 8.01-4.29z" fill="#F7FAF9"/>
<path transform="translate(866,361)" d="m0 0c1.52 1.94 1.52 1.94 2.38 4 0.29 0.68 0.59 1.36 0.89 2.06 3.15 8.4 2.03 16.7-1.27 24.9-2.95 3.8-5.47 5.56-10 7-2.57 0.2-5 0.28-7.56 0.25-1.17-0.01-1.17-0.01-2.36-0.01-9.39-0.13-18.8-0.67-28.1-1.18-0.82-0.04-1.64-0.08-2.49-0.13l-7.05-0.39c-0.71-0.04-1.43-0.08-2.17-0.12-5-0.3-5-0.3-7.23-1.42-3.5-0.49-7.01-0.9-10.5-1.3-3.52-0.71-5.68-1.48-8.48-3.7-1.18-6.87 1.11-11.4 5-17 2.25-2.62 2.25-2.62 5-5 0.61-0.55 1.23-1.11 1.86-1.68 6.12-5.2 12.6-7.86 20.1-10.3 0.95-0.33 1.89-0.67 2.87-1.01 14.7-4.53 35.5-1.98 49.1 5.01z" fill="#000002"/>
<path transform="translate(891 597)" d="m0 0c0.98 0 1.95 0.01 2.96 0.01 0.97-0.02 1.95-0.03 2.95-0.05h2.83c0.85 0 1.71-0.01 2.59-0.01 1.05 0.18 1.05 0.18 2.13 0.37 2.05 3.09 2.24 3.66 2.2 7.12-0.01 0.84-0.01 1.68-0.02 2.54-0.02 1.37-0.02 1.37-0.05 2.77-0.01 0.97-0.02 1.93-0.03 2.93-0.03 3.2-0.08 6.39-0.13 9.59-0.02 2.22-0.05 4.43-0.07 6.65-0.07 5.83-0.15 11.7-0.23 17.5-0.08 5.95-0.15 11.9-0.22 17.9-0.14 11.7-0.29 23.4-0.45 35h-23c-2.25-4.49-1.42-10.4-1.57-15.4-0.03-1.05-0.03-1.05-0.06-2.11-0.43-14.9-0.48-29.8-0.5-44.8 0-1.13 0-2.26-0.01-3.42-0.05-28.1-0.05-28.1 1.14-34.3 2.94-2.94 5.52-2.29 9.54-2.32z" fill="#FBFDFD"/>
<path transform="translate(788 462)" d="m0 0c1.67-0 1.67-0 3.37-0.01 1.19 0 2.39 0 3.62 0.01 1.84-0 1.84-0 3.73-0.01 2.6 0 5.2 0 7.8 0.01h8c3.84-0.01 7.69-0.01 11.5-0 1.2-0.01 2.39-0.01 3.63-0.01 1.11 0 2.21 0.01 3.36 0.01h2.95c2.46 0.13 2.46 0.13 5.46 1.13 3.12 5.54 3.44 10.3 3.32 16.6 0 0.83 0 1.65 0.01 2.5-0.05 5.45-0.54 10.1-3.48 14.8-2.97 1.83-6.03 1.49-9.41 1.39-0.8-0.01-1.59-0.02-2.41-0.04-3.01-0.05-6.02-0.13-9.03-0.21-1.37-0.03-2.74-0.06-4.11-0.1-4.54-0.1-9.09-0.22-13.6-0.34-1.12-0.03-1.12-0.03-2.27-0.06-2.17-0.05-4.35-0.12-6.52-0.18-1.9-0.06-1.9-0.06-3.84-0.12-9.63-0.54-9.63-0.54-13.6-3.2-1.56-4.7-1.22-9.45-1.25-14.4-0.02-1.04-0.04-2.08-0.06-3.15-0.05-9.91-0.05-9.91 3.31-13.5 3.19-1.1 6.2-1.13 9.55-1.13z" fill="#000002"/>
<path transform="translate(612,509)" d="m0 0c31.2-0.28 31.2-0.28 37.4 4.72 5.95 4.77 12.3 4.88 19.6 4.28 4.43-0.81 6.5-1.54 9.84-4.59 5.38-3.92 11.6-2.73 18-2.29 1.86 0.1 1.86 0.1 3.76 0.19 9.04 0.5 9.04 0.5 11.4 1.69-0.65 3.7-2.28 6.31-4.31 9.44-0.6 0.92-1.19 1.85-1.8 2.81-5.39 7.86-5.39 7.86-9.39 9.87-3.35 1.68-3.35 1.68-5.56 3.44-5.15 3.82-9.98 5.03-16.2 5.63-1.13 0.12-1.13 0.12-2.29 0.24-5.51 0.54-10.9 0.97-16.5 0.57-1.02-0.07-2.05-0.14-3.11-0.21-8.51-0.91-14.1-3.68-20.9-8.79-0.88-0.62-1.76-1.25-2.66-1.89-6.15-4.57-10.3-9.61-14.3-16.1-0.56-0.84-1.12-1.68-1.69-2.55-1.31-2.45-1.31-2.45-1.31-6.45z" fill="#FBFDFD"/>
<path transform="translate(493,621)" d="m0 0c4.29-0.05 8.57-0.09 12.9-0.11 1.46-0.01 2.91-0.02 4.37-0.04 2.1-0.03 4.2-0.04 6.31-0.05 1.89-0.01 1.89-0.01 3.82-0.03 7.75 0.49 13.3 3.05 18.9 8.35 3.45 5.67 4.22 11.6 3.19 18.1-1.43 5.81-4.06 8.98-8.88 12.6-6.85 3.18-14.8 2.38-22.2 2.38-2.17 0-4.34 0.02-6.51 0.03-1.38 0.01-2.76 0.01-4.13 0.01-1.88 0.01-1.88 0.01-3.79 0.01-2.98-0.24-2.98-0.24-4.98-2.24-0.19-2.77-0.26-5.45-0.23-8.22v-2.46c0-1.73 0.01-3.45 0.02-5.17 0.02-2.64 0.02-5.28 0.02-7.92 0.01-1.67 0.02-3.34 0.02-5.01 0-0.79 0-1.59 0.01-2.4 0.04-5.59 0.04-5.59 1.16-7.82z" fill="#000002"/>
<path transform="translate(794,868)" d="m0 0h3c4.88 9.59 4.88 9.59 6.62 14 1.17 3.24 1.17 3.24 4.38 5 2.12 0.45 2.12 0.45 4.45 0.63 0.85 0.09 1.69 0.17 2.57 0.26 0.88 0.08 1.76 0.15 2.67 0.23 0.89 0.09 1.78 0.18 2.7 0.27 2.2 0.21 4.41 0.41 6.61 0.61-0.75 5.79-0.75 5.79-3 7.69-0.66 0.43-1.32 0.86-2 1.31-0.5 1.49-0.5 1.49-1 3-4.32 4.77-4.32 4.77-8 6 0.11 2.06 0.24 4.13 0.38 6.19 0.06 1.15 0.13 2.29 0.21 3.48 0.39 3.15 1.17 5.44 2.41 8.33 0.12 2.81 0.12 2.81 0 5-4.14-1.09-7.19-2.76-10.7-5.12-5.45-3.42-10-3.53-16.3-2.88l-1 3c-2.9 1.45-4.74 2-8 2l-1 3-4-1c0.14-1 0.29-2 0.44-3.04 0.19-1.34 0.37-2.68 0.56-4.02 0.1-0.66 0.19-1.32 0.29-1.99 1.48-9.07 1.48-9.07-1.74-17.3-2.93-3.17-6.22-5.94-9.5-8.73-0.68-0.64-1.35-1.29-2.05-1.95v-2c0.89-0.12 0.89-0.12 1.79-0.24 2.67-0.37 5.35-0.75 8.02-1.14 0.93-0.12 1.86-0.25 2.82-0.38 0.89-0.13 1.78-0.26 2.7-0.39 0.82-0.11 1.65-0.23 2.49-0.35 2.46-0.43 2.46-0.43 5.18-2.5 1.34-2.17 1.34-2.17 2.5-4.69 0.43-0.89 0.85-1.77 1.29-2.69 1.47-3.18 2.87-6.38 4.21-9.62z" fill="#FBFDFD"/>
<path transform="translate(661 439)" d="m0 0c0.82-0.02 1.64-0.04 2.48-0.06 2.38-0.02 2.38-0.02 6.33 0.31 2 3 2 3 1.39 6.36-0.36 1.32-0.74 2.64-1.14 3.95-0.18 0.65-0.36 1.31-0.55 1.98-0.55 1.91-1.12 3.81-1.7 5.71-0.31 1.12-0.62 2.25-0.94 3.4-0.52 1.29-0.52 1.29-1.06 2.6-3.19 1.25-3.19 1.25-7 2-7.95 1.95-13.7 5.5-18.6 12.1-2.06 4.12-3.22 8.44-4.44 12.9-2.83 0.03-5.66 0.05-8.5 0.06-0.79 0.01-1.58 0.02-2.4 0.03-5.13 0.02-10-0.35-15.1-1.09 0-14.5 5.36-25.3 15.4-35.6 10.7-9.87 21.4-14.6 35.8-14.7z" fill="#FBFDFD"/>
<path transform="translate(674,404)" d="m0 0v3h2c0.5 1.49 0.5 1.49 1 3-3.3 3.45-6.52 3.41-11 3.57-0.88 0.02-1.76 0.04-2.67 0.05-12.6 0.09-12.6 0.09-24.6 3.32-0.79 0.34-1.58 0.68-2.39 1.02-1.17 0.52-1.17 0.52-2.36 1.04-1.2 0.46-1.2 0.46-2.43 0.92-11.9 5-23.8 13.2-29.6 25.1-0.58 0.56-1.15 1.11-1.75 1.69-2.78 2.86-4.6 6.04-6.59 9.48-1.66 1.83-1.66 1.83-4.21 2.19-2.9-0.43-4.28-1.43-6.45-3.36 0.57-3.96 1.81-6.67 4-10-0.96-0.09-0.96-0.09-1.93-0.18-0.83-0.09-1.66-0.17-2.51-0.26-0.82-0.08-1.64-0.16-2.49-0.24-2.07-0.32-2.07-0.32-3.07-1.32-0.1-2.68-0.14-5.32-0.12-8-0.01-0.75-0.01-1.5-0.02-2.27 0.01-5.6 0.01-5.6 1.14-6.73 1.37-0.03 2.74 0.01 4.11 0.09 1.26 0.06 1.26 0.06 2.54 0.13 0.88 0.05 1.76 0.1 2.66 0.16 1.3 0.06 1.3 0.06 2.63 0.13 6.65 0.37 6.65 0.37 9.2 1.14 0.61 0.12 1.23 0.23 1.86 0.35 2.14-1.9 2.14-1.9 3.53-3.47 4.47-4.64 10.2-8.12 15.7-11.4 1.4-0.85 2.76-1.77 4.1-2.71 3.58-1.84 7.27-2.69 11.2-3.63 2.73-0.68 2.73-0.68 5.52-2.75 2.66-0.47 5.25-0.84 7.94-1.12 0.75-0.09 1.51-0.17 2.29-0.26 17.4-1.8 17.4-1.8 22.8 1.38z" fill="#010103"/>
<path transform="translate(655 377)" d="m0 0c1.07-0 2.14-0 3.24-0.01 2.26 0 4.51 0.01 6.76 0.01 3.46 0.02 6.91 0 10.4-0.01 2.19 0 4.38 0.01 6.58 0.01 1.03-0 2.06-0.01 3.13-0.01 0.96 0 1.92 0.01 2.91 0.02h2.56c2.56 0.29 4.13 0.86 6.3 2.26 2 3 2 3 2 6h2v7h-2c-0.27 0.97-0.54 1.93-0.82 2.93-0.39 1.01-0.78 2.02-1.18 3.07-2.97 0.98-4.94 1.13-8.04 1.16-1.02 0.01-2.05 0.02-3.1 0.03-1.11 0-2.22 0-3.36 0.01-1.7 0.01-1.7 0.01-3.45 0.02-2.4 0.01-4.81 0.01-7.22 0.02-3.69 0.01-7.37 0.04-11.1 0.07-2.34 0-4.68 0.01-7.02 0.01-1.1 0.02-2.2 0.03-3.34 0.04-1.03 0-2.06 0-3.12-0.01-0.9 0.01-1.81 0.01-2.74 0.01-3.15-0.45-5.02-1.47-7.55-3.36-0.97-2.92-1.17-4.91-1.19-7.94-0.02-0.86-0.03-1.71-0.04-2.59 0.25-2.78 0.54-4.24 2.23-6.47 5.57-2.57 11.2-2.29 17.2-2.27z" fill="#000002"/>
<path transform="translate(682,443)" d="m0 0c7.79 0.76 12.9 4.37 18 10 0.61 0.6 1.21 1.21 1.84 1.83 8.87 9.19 15 21.2 15.4 34.2-0.19 3-0.19 3-1.19 4-1.69 0.03-3.37-0.01-5.06-0.09-1.02-0.04-2.05-0.08-3.11-0.13-1.08-0.05-2.16-0.1-3.27-0.16-1.07-0.04-2.15-0.08-3.26-0.13-8.04-0.36-8.04-0.36-10.3-1.49-0.46-1.97-0.46-1.97-0.81-4.5-1.44-7.66-4.22-13.3-10.5-18.1-1.22-0.83-2.44-1.65-3.69-2.44 0.28-1.9 0.58-3.79 0.88-5.69 0.16-1.05 0.32-2.11 0.49-3.2 0.59-2.92 1.45-5.38 2.63-8.11 0.68-2 1.35-4 2-6z" fill="#FBFDFD"/>
<path transform="translate(737 410)" d="m0 0c3.06 0.12 3.06 0.12 5.06 1.12v3h2v3c0.66 0.33 1.32 0.67 2 1v19h-2c-0.1 0.67-0.19 1.33-0.29 2.02-0.9 5.27-1.59 9.23-5.71 13-3.91 1.44-6.23 0.55-9.96-0.97-3.19-1.6-5.48-3.53-8.04-6.03v-2c-0.59-0.27-1.18-0.55-1.78-0.84-3.44-1.79-6.36-4.16-9.4-6.53-0.97-0.72-0.97-0.72-1.95-1.46-0.61-0.48-1.22-0.95-1.85-1.44-0.83-0.64-0.83-0.64-1.68-1.29-1.65-1.77-2.03-3.05-2.34-5.44 1.35-2.69 2.58-2.77 5.38-3.81 3.77-1.44 7.46-2.99 11.1-4.69 4.48-2.06 9-3.93 13.6-5.7 4.44-1.86 4.44-1.86 5.84-1.92z" fill="#000002"/>
<path transform="translate(882,609)" d="m0 0h1l2 17 2-13h1c0.6 7.02 1.14 14 1 21 0.89-3.3 1.46-6.62 2-10h1v7h2v-13l2 1c0.38 2.69 0.38 2.69 0.56 6-0.11 3.82-0.11 3.82 1.44 7l1-23h1c0.56 6.97 1.07 13.9 1.5 20.9 0.04 0.67 0.08 1.33 0.12 2.02 0.17 2.75 0.34 5.49 0.5 8.24 0.13 2.04 0.25 4.08 0.38 6.12 0.07 1.19 0.14 2.39 0.22 3.62 0.23 2.51 0.61 4.68 1.28 7.09 0.42 6.14 0.04 11.8-1.5 17.7-0.74 3.37-0.94 6.76-1.16 10.2-0.34 2.07-0.34 2.07-2.34 4.07-0.2-2.58-0.38-5.17-0.56-7.75-0.06-0.73-0.11-1.46-0.17-2.21-0.25-3.59-0.27-6.59 0.73-10h-3v15h-5c-1.28-3.85-1.07-6.95-1-11-0.99 0.5-0.99 0.5-2 1-0.41 2.32-0.74 4.66-1 7h-2l-2 2v-4h-2c-0.9-8.13-1.13-16.2-1.1-24.3 0-1.23 0.01-2.46 0.01-3.72 0-3.88 0.01-7.77 0.03-11.6 0-2.65 0.01-5.29 0.01-7.94 0.01-6.46 0.03-12.9 0.05-19.4h2v-3z" fill="#F7FAF9"/>
<path transform="translate(719 377)" d="m0 0c1.09-0 2.18-0.01 3.31-0.01 1.75 0.02 1.75 0.02 3.54 0.04h3.65c2.55 0.01 5.1 0.02 7.64 0.05 3.91 0.03 7.81 0.04 11.7 0.04 2.47 0.01 4.95 0.02 7.42 0.03 1.17 0.01 2.35 0.01 3.55 0.02 1.63 0.01 1.63 0.01 3.29 0.03 1.43 0.01 1.43 0.01 2.9 0.02 2.41 0.14 2.41 0.14 5.41 1.14 2.5 4.31 3.17 8.05 2.31 12.9-2.39 3.17-2.82 3.63-6.43 4.57-6.17 0.84-12.3 0.26-18.5-0.2-10.1-0.74-19.8-0.54-29.8 1.36-2.61 0.34-2.61 0.34-5.61-0.66v-2c-0.62-0.11-1.24-0.21-1.87-0.32-2.13-0.68-2.13-0.68-4.13-3.68-0.15-2.38-0.15-2.38 0.06-5 0.06-0.87 0.11-1.74 0.16-2.63 0.78-2.37 0.78-2.37 2.98-4 3.09-1.51 4.96-1.74 8.37-1.73z" fill="#000002"/>
<path transform="translate(606,597)" d="m0 0c7.4-0.05 14.8-0.08 22.2-0.1 3.44-0.01 6.87-0.03 10.3-0.05 3.94-0.03 7.89-0.04 11.8-0.05 1.23-0.01 2.47-0.02 3.74-0.03h3.46c1.01 0 2.02-0.01 3.06-0.01 2.4 0.24 2.4 0.24 4.4 2.24 0.24 2.14 0.24 2.14 0.23 4.75 0 0.94 0 1.88-0.01 2.84-0.01 0.98-0.02 1.96-0.03 2.97v2.98c-0.05 7.32-0.05 7.32-1.19 8.46-1.78 0.09-3.56 0.12-5.35 0.11h-3.45c-1.25 0-2.49-0.01-3.77-0.01-1.89 0-1.89 0-3.83-0.01-3.36 0-6.73-0.01-10.1-0.02-3.43-0.01-6.87-0.02-10.3-0.02-6.73-0.01-13.5-0.03-20.2-0.05v-2c0.62-0.12 1.23-0.24 1.87-0.37 5.73-1.13 11.4-2.34 17.1-3.63-0.99-0.33-1.98-0.66-3-1l3-3-4 2c0.57-2.87 0.86-3.86 3-6v-1l-12-1v-1c6.43-0.5 6.43-0.5 13-1-4.62-0.72-9.13-1.17-13.8-1.32-1.24-0.04-2.48-0.08-3.76-0.12s-2.55-0.08-3.87-0.12c-1.3-0.05-2.61-0.09-3.95-0.13-3.2-0.11-6.41-0.21-9.61-0.31v-1c7.92-0.5 7.92-0.5 16-1l-1-2z" fill="#FBFDFD"/>
<path transform="translate(1116 597)" d="m0 0c1.22-0.01 2.44-0.02 3.69-0.04h3.52c1.08-0.01 2.15-0.01 3.25-0.02 2.6 0.25 2.6 0.25 4.6 2.25-0.46 0.64-0.92 1.28-1.39 1.94-3.48 4.9-6.74 9.78-9.61 15.1h-2c-0.09 0.55-0.17 1.1-0.26 1.67-0.96 3.02-2.56 5-4.49 7.52-2.5 3.35-4.8 6.61-6.75 10.3-2.47 4.67-5.55 8.8-8.73 13-1.51 2.11-2.7 4.12-3.77 6.48h-2c-0.1 0.64-0.2 1.28-0.31 1.93-0.23 0.69-0.45 1.37-0.69 2.07-1.48 0.49-1.48 0.49-3 1 0.64-3.47 2.07-5.7 4-8.63 4.35-7.64 3.98-15.8 4-24.4-5.56 2.36-5.56 2.36-11 5-1.35-8.6 3.31-14.2 8-21 0.41-0.61 0.82-1.22 1.25-1.84 7.24-10.7 8.59-12.3 21.7-12.4z" fill="#FBFDFD"/>
<path transform="translate(748,444)" d="m0 0c2.57-0.37 2.57-0.37 5.78-0.36h3.49c1.21 0.01 2.42 0.03 3.67 0.05 1.2-0.01 2.41-0.01 3.65-0.01 9.01 0.05 9.01 0.05 12.4 2.32-1 1-1 1-4.16 1.1-1.93-0.02-1.93-0.02-3.9-0.04-1.29-0.01-2.58-0.02-3.91-0.02-1-0.02-2-0.03-3.03-0.04l-1 2c-0.99-0.33-1.98-0.66-3-1-1.56-0.07-3.13-0.09-4.69-0.06-0.81 0.01-1.61 0.02-2.45 0.02-0.61 0.02-1.23 0.03-1.86 0.04-2.14 4.34-2.29 8.33-2.27 13.1v2.32c0 1.61 0 3.22 0.01 4.83 0.01 2.47 0 4.94-0.01 7.41v4.69c0 1.11 0 1.11-0.01 2.25-0.09 4.17-0.09 4.17 2.28 7.43 1.99 0.4 3.99 0.74 6 1-0.33-0.88-0.65-1.76-0.99-2.66-1.66-5.8-1.22-11.8-1.13-17.8 0-1.21 0.01-2.41 0.02-3.66 0.03-2.97 0.06-5.93 0.1-8.9l4-2c-0.03 0.78-0.06 1.56-0.1 2.37-0.12 3.56-0.2 7.13-0.28 10.7-0.05 1.23-0.1 2.46-0.15 3.73-0.21 7.8-0.21 7.8 3.22 14.6 2.14 2.03 3.16 2.62 6.08 3.34 0.86-0.08 1.72-0.16 2.61-0.24 0.87-0.07 1.74-0.13 2.64-0.19 0.66-0.09 1.31-0.17 1.98-0.25l-1 4 2 1 1-3c0.15 0.96 0.15 0.96 0.31 1.94 0.23 0.68 0.46 1.36 0.69 2.06 0.99 0.33 1.98 0.66 3 1l-4 2 17 1c1.2 2.41 1.1 3.95 1.06 6.62-0.01 0.82-0.02 1.64-0.02 2.48-0.02 0.63-0.03 1.25-0.04 1.9-4.11 0.05-8.22 0.09-12.3 0.11-1.4 0.01-2.79 0.02-4.18 0.04-7.76 0.1-15-0.04-22.5-2.15v-10l-2-1c-0.5-1.49-0.5-1.49-1-3-1.66-0.68-3.33-1.35-5-2-2-3-2-3-2-6h-2c-0.05-4.45-0.09-8.89-0.11-13.3-0.01-1.51-0.02-3.02-0.04-4.54-0.03-2.18-0.04-4.35-0.05-6.53-0.01-1.31-0.02-2.62-0.03-3.97 0.29-4.64 0.88-8.27 4.23-11.6l2-3z" fill="#FAFCFC"/>
<path transform="translate(903 336)" d="m0 0c1.05-0.03 2.1-0.06 3.18-0.09 1.01-0.01 2.02-0.01 3.07-0.02 0.92-0.02 1.84-0.03 2.79-0.05 3.29 0.62 4.43 1.93 6.52 4.47 5.03 9.72 5.11 18.5 1.95 28.8-1.2 2.8-2.79 5.06-4.95 7.22-7.11 0.71-7.11 0.71-10.5-2-2.95-3.56-4.7-7.1-6.55-11.3-0.66-1.45-1.31-2.91-1.97-4.36-0.32-0.72-0.64-1.43-0.98-2.17-1.9-4.14-3.94-8.21-6.1-12.2-1.11-2.41-1.03-4.31-0.89-6.94 4.72-1.57 9.49-1.26 14.4-1.31z" fill="#000002"/>
<path transform="translate(766 408)" d="m0 0c1.12-0.02 2.24-0.04 3.39-0.06 1.07-0.01 2.14-0.01 3.23-0.02 0.99-0.01 1.97-0.02 2.98-0.03 0.79 0.12 1.58 0.24 2.4 0.36 2.37 3.56 2.25 5.1 2.23 9.31 0 1.24 0 2.48-0.01 3.76-0.01 1.95-0.01 1.95-0.03 3.93v3.93c-0.05 9.65-0.05 9.65-1.19 13.1-3.75 0.06-7.5 0.09-11.2 0.13-1.06 0.01-2.13 0.03-3.22 0.05-1.54 0.01-1.54 0.01-3.11 0.02-1.41 0.01-1.41 0.01-2.85 0.03-2.57-0.23-2.57-0.23-6.57-2.23v-31c4.13-2.06 9.47-1.23 14-1.25z" fill="#000002"/>
<path transform="translate(811,784)" d="m0 0c6.37-0.06 6.37-0.06 12.9-0.12 2-0.03 2-0.03 4.05-0.06 1.05-0.01 2.1-0.01 3.19-0.02 1.08-0.01 2.15-0.02 3.27-0.03 2.61 0.23 2.61 0.23 4.61 2.23 0.26 2.86 0.26 2.86 0.27 6.47v3.92c0 1.01 0 1.01-0.01 2.04-0.01 2.06 0 4.12 0.01 6.18v3.92c-0.01 1.19-0.01 2.38-0.01 3.61-0.26 2.86-0.26 2.86-2.26 4.86-2.18 0.26-2.18 0.26-4.87 0.27h-2.93c-1.52-0.01-1.52-0.01-3.08-0.02-1 0.01-2.01 0.02-3.05 0.02h-2.94c-0.89-0.01-1.77-0.01-2.69-0.01-2.44-0.26-2.44-0.26-6.44-2.26v-31z" fill="#000002"/>
<path transform="translate(945,648)" d="m0 0c6.37-0.05 12.7-0.09 19.1-0.11 2.17-0.01 4.33-0.02 6.5-0.04 3.12-0.03 6.23-0.04 9.34-0.05 0.97-0.01 1.95-0.02 2.95-0.03h2.73c0.8 0 1.59-0.01 2.41-0.01 1.95 0.24 1.95 0.24 3.95 2.24 0.23 1.97 0.23 1.97 0.2 4.35-0.01 0.85-0.02 1.7-0.02 2.58-0.02 0.89-0.04 1.78-0.06 2.69 0 0.9-0.01 1.8-0.02 2.72-0.03 2.22-0.06 4.44-0.1 6.66-2.84 0.81-5.36 1.12-8.31 1.11h-2.55c-1.34 0-1.34 0-2.72-0.01-0.92 0-1.85-0.01-2.81-0.01-2.95 0-5.91-0.01-8.86-0.03-2.01 0-4.01-0.01-6.02-0.01-4.91-0.01-9.82-0.03-14.7-0.05l-1-3c1.12 0.02 1.12 0.02 2.27 0.04 0.98 0 1.97 0.01 2.98 0.02 0.97 0.01 1.95 0.03 2.95 0.04 3.03-0.01 3.03-0.01 6.8-1.1h-9l-1-3h-2l-1-3-2-1c-0.62-2.06-0.62-2.06-1-4 1.98-0.33 3.96-0.66 6-1-0.64-0.25-1.28-0.5-1.94-0.75-2.06-1.25-2.06-1.25-2.69-3.33-0.12-0.63-0.24-1.27-0.37-1.92z" fill="#FBFDFD"/>
<path transform="translate(706,877)" d="m0 0c4.44 3.52 5.52 7.75 7 13 1.56 0.34 3.12 0.67 4.69 1 1.3 0.28 1.3 0.28 2.63 0.56 2.67 0.53 2.67 0.53 5.39 0.32 0.75 0.04 1.51 0.08 2.29 0.12l2 3c-2.81 2.96-5.18 5.44-9 7-0.11 6.08 0.31 12 1 18h-3v-2c-1.41-0.51-2.83-1.01-4.25-1.5-0.79-0.28-1.58-0.56-2.39-0.84-4.68-1.3-7.34-0.38-11.4 1.84-4.62 2.5-4.62 2.5-7.94 2.5 0.16-0.65 0.31-1.3 0.47-1.98 1.66-7.02 1.66-7.02 0.53-14-2.33-2.67-2.33-2.67-5-5-3-3.52-3-3.52-3-7l15-1c1.31-3.28 2.53-6.47 3.62-9.81 0.27-0.79 0.53-1.58 0.79-2.4 0.2-0.59 0.39-1.18 0.59-1.79z" fill="#FBFDFD"/>
<path transform="translate(881,878)" d="m0 0c3 1 3 1 4.06 2.96 0.47 1.2 0.47 1.2 0.94 2.42 1.24 3.17 2.2 5.58 5 7.62 2.89 0.72 2.89 0.72 6.06 1.06 5.73 0.73 5.73 0.73 7.94 2.94-4.62 4.74-4.62 4.74-7.25 6.5-2.39 2.05-2.38 3.4-2.75 6.5 0.3 3.14 0.3 3.14 0.94 6.31 0.19 1.07 0.39 2.14 0.59 3.24 0.15 0.81 0.31 1.62 0.47 2.45-4.4-1.32-8.13-3.08-12.1-5.39-1.95-0.84-1.95-0.84-3.91 0.15-0.67 0.41-1.33 0.82-2.02 1.24-3.33 1.67-6.67 3.33-10 5-0.91-3.72-1.07-5.78 0.06-9.5 1.13-4.2 0.97-5.68-1.06-9.5-1.77-1.67-3.58-3.16-5.54-4.61-0.48-0.46-0.96-0.92-1.46-1.39v-3c0.95-0.03 1.91-0.06 2.89-0.09 7.32-0.29 7.32-0.29 13.1-4.16 1.24-2.56 2.2-5.02 2.99-7.75l1-3z" fill="#FBFDFD"/>
<path transform="translate(880,784)" d="m0 0c4.12-0.03 8.25-0.05 12.4-0.06 1.76-0.02 1.76-0.02 3.56-0.03 1.68 0 1.68 0 3.4-0.01 1.55-0.01 1.55-0.01 3.14-0.01 2.52 0.11 2.52 0.11 4.52 1.11v3h2v17l-2 1c0.6 3.68 1.25 7.35 2 11-2.62 0.5-2.62 0.5-6 0-1.83-1.92-3.25-3.93-4.7-6.15-1.18-1.99-1.18-1.99-3.3-2.85-1.54-0.07-3.08-0.08-4.62-0.06-0.82 0.01-1.64 0.02-2.48 0.02-0.63 0.02-1.25 0.03-1.9 0.04-0.22 1.11-0.22 1.11-0.44 2.25-0.46 2.27-0.98 4.51-1.56 6.75l-5-1c-0.02-4.24-0.04-8.47-0.05-12.7l-0.03-4.32c-0.01-2.07-0.01-4.14-0.02-6.21 0-1.25-0.01-2.49-0.01-3.78 0.11-2.98 0.11-2.98 1.11-4.98z" fill="#000002"/>
<path transform="translate(617 675)" d="m0 0c1.01-0.01 2.03-0.01 3.07-0.02h3.33c1.13-0.01 2.25-0.01 3.41-0.01 2.38-0.01 4.76-0.01 7.14-0.01 3.66 0 7.31-0.02 11-0.04 2.3 0 4.61 0 6.92-0.01 1.65-0.01 1.65-0.01 3.33-0.02 1.02 0.01 2.03 0.01 3.08 0.01h2.71c2.16 0.25 2.16 0.25 4.16 2.25 0.25 2.13 0.25 2.13 0.23 4.75v2.84c-0.01 0.98-0.03 1.96-0.04 2.97v2.98c-0.05 7.32-0.05 7.32-1.19 8.46-2.55 0.09-5.08 0.12-7.64 0.11h-2.42c-2.66 0-5.32-0.01-7.97-0.02h-5.51c-4.85-0.01-9.69-0.02-14.5-0.03-4.94-0.01-9.88-0.01-14.8-0.02-9.7-0.01-19.4-0.02-29.1-0.04-1.35-2.71-1.06-5.01-1-8l2-1c2 2 2 2 2 5h2v2c18.8-0.47 37.4-2.28 56-5 0.5-1.49 0.5-1.49 1-3 4.97-0.92 9.03-0.92 14 0v-3c-0.62 0.16-1.23 0.33-1.87 0.5-2.13 0.5-2.13 0.5-4.13 0.5v-2l-5-1v-1h5v-2c-1.82-0.1-1.82-0.1-3.69-0.19-1.62-0.08-3.25-0.17-4.87-0.25-1.2-0.06-1.2-0.06-2.42-0.12-4.73-0.25-9.34-0.7-14-1.44v-2c-1.46 0.14-1.46 0.14-2.95 0.28-1.28 0.12-2.55 0.23-3.86 0.34-1.9 0.17-1.9 0.17-3.83 0.35-3.36 0.03-3.36 0.03-6.36-1.97 2.47-1.24 4.12-1.14 6.88-1.15z" fill="#FBFDFD"/>
<path transform="translate(637 784)" d="m0 0c0.79-0 1.59-0.01 2.4-0.01 0.83 0.01 1.65 0.02 2.5 0.03 0.83-0.01 1.66-0.02 2.51-0.03 0.79 0 1.59 0.01 2.4 0.01 0.73 0 1.45 0 2.2 0.01 1.83 0.26 1.83 0.26 3.83 2.26 0.24 2.96 0.24 2.96 0.23 6.72v2c0 1.4-0.01 2.79-0.02 4.19-0.02 2.14-0.02 4.29-0.02 6.43-0.04 10.5-0.04 10.5-1.19 11.7-2.34-0.29-4.67-0.62-7-1l-1-8c-2.15-0.03-4.29-0.05-6.44-0.07-1.19-0.01-2.39-0.02-3.62-0.03-2.83-0.24-2.83-0.24-3.94 1.1-0.23 1.34-0.41 2.7-0.56 4.06-0.15 1.3-0.29 2.6-0.44 3.94l-5-1c-0.86-5.04-1.06-9.62-0.75-14.8 0.07-1.3 0.13-2.59 0.2-3.93 0.57-3.44 0.9-4.26 3.55-6.32 0.49-0.85 0.99-1.7 1.5-2.57 2.31-3.74 4.44-4.69 8.66-4.7z" fill="#010103"/>
<path transform="translate(804,409)" d="m0 0c5.39-0.02 10.8-0.04 16.2-0.05 1.84-0.01 3.67-0.02 5.51-0.03 2.63-0.01 5.27-0.01 7.9-0.02 0.83 0 1.65-0.01 2.5-0.01 1.97 0 3.94 0.05 5.91 0.11 1 1 1 1 1.1 3.69-0.01 1.09-0.03 2.18-0.04 3.31-0.01 1.09-0.02 2.19-0.02 3.31-0.02 0.89-0.03 1.78-0.04 2.69v1 10l-2-1c-2.16-0.1-4.33-0.13-6.5-0.12-1.75-0.01-1.75-0.01-3.53-0.01-2.9-0.07-2.9-0.07-4.97 1.13v-17h-4l-1 11h-16c-1.33-5.97-1.09-11.9-1-18z" fill="#F7FAF9"/>
<path transform="translate(659,784)" d="m0 0h26c1.92 4.79 2.27 8.19 2.19 13.2v2.19c-0.05 5.34-0.05 5.34-1.19 7.62-0.6 0.03-1.2 0.05-1.82 0.08-2.71 0.11-5.41 0.23-8.12 0.36-0.94 0.04-1.89 0.08-2.86 0.12-0.9 0.04-1.8 0.08-2.73 0.12-0.83 0.04-1.66 0.08-2.52 0.11-1.95 0-1.95 0-2.95 1.21-0.23 1.35-0.41 2.7-0.56 4.06-0.15 1.3-0.29 2.6-0.44 3.94-1.98-0.33-3.96-0.66-6-1-0.02-4.24-0.04-8.47-0.05-12.7l-0.03-4.32c-0.01-2.07-0.01-4.14-0.02-6.21 0-1.25-0.01-2.49-0.01-3.78 0.11-2.98 0.11-2.98 1.11-4.98z" fill="#000002"/>
<path transform="translate(692,784)" d="m0 0h27c1.9 4.74 2.25 7.11 2.19 12.1-0.01 1.21-0.02 2.42-0.02 3.66-0.17 3.28-0.17 3.28-1.17 7.28-10.4 0.5-10.4 0.5-21 1-0.75 3-1.41 5.97-2 9l-5-1v-32z" fill="#000002"/>
<path transform="translate(806,438)" d="m0 0c2.59-0.36 2.59-0.36 5.86-0.33 1.18 0.01 2.36 0.01 3.57 0.02 1.24 0.02 2.48 0.04 3.76 0.06 1.22 0.01 2.44 0.01 3.69 0.02 16 0.13 16 0.13 18.1 2.23 0.1 2.66 0.14 5.28 0.12 7.94 0.01 1.11 0.01 1.11 0.02 2.25-0.01 5.56-0.01 5.56-1.14 7.81-27.9 0.24-27.9 0.24-34-1-2-2-2-2-2.27-5.15 0.01-1.25 0.01-2.5 0.02-3.79-0.01-1.24-0.01-2.49-0.02-3.77 0.27-3.29 0.27-3.29 2.27-6.29z" fill="#000002"/>
<path transform="translate(718,445)" d="m0 0c4.63 0.63 4.63 0.63 6.42 2.44 1.77 1.75 3.19 2.4 5.52 3.25 0.67 0.25 1.34 0.5 2.02 0.76 2.33 0.72 2.33 0.72 6.04 0.55l1-2 1 2 3-3c1.12 3.75 1.12 3.75 0 6-0.16 2.41-0.26 4.79-0.32 7.2-0.02 0.7-0.04 1.41-0.06 2.14l-0.18 6.78c-0.05 1.54-0.09 3.07-0.13 4.6-0.11 3.76-0.21 7.52-0.31 11.3h2c0.38 1.99 0.71 3.99 1 6-1 1-1 1-3.07 1.1-0.82-0.01-1.64-0.03-2.49-0.04-0.83-0.01-1.66-0.02-2.51-0.02-0.63-0.02-1.27-0.03-1.93-0.04-1.84-4.08-2.61-8.11-3.31-12.5-1.15-6.68-2.98-12.6-5.6-18.8-0.91-2.23-1.59-4.32-2.09-6.67h-2c-1.46-2.65-2-3.89-2-7h-2v-4z" fill="#FBFDFD"/>
<path transform="translate(1018,597)" d="m0 0c4.25-0.15 8.5-0.23 12.8-0.31 1.81-0.07 1.81-0.07 3.66-0.13 1.16-0.02 2.32-0.03 3.51-0.05 1.07-0.02 2.14-0.05 3.24-0.08 2.84 0.57 2.84 0.57 5.15 2.99 1.31 2 2.57 3.96 3.69 6.08 1.23 2.22 2.4 4 4 6 3.52 4.4 9 11.8 9 17.5h-2v-2c-0.74-0.25-1.48-0.5-2.25-0.75-4.76-2.16-7.69-6.1-10.8-10.2v-2h-2c-0.67-1.31-1.34-2.62-2-3.94-0.56-1.09-0.56-1.09-1.12-2.21-0.88-1.85-0.88-1.85-0.88-2.85h-7l-1 5 2 1c2.23 4.47 3.24 9.09 4 14 0.62 1.68 1.28 3.36 2 5l-2 2c-0.84-1.12-1.67-2.25-2.5-3.38-0.46-0.62-0.93-1.25-1.41-1.89-1.09-1.73-1.09-1.73-1.09-3.73-0.6-0.07-1.2-0.13-1.81-0.2-3.06-1.12-3.65-2.73-5.19-5.55-2.1-3.71-4.27-6.97-7-10.2-2.31-3.06-2.31-3.06-4-6 0.39-2.18 0.39-2.18 1-4z" fill="#FBFDFD"/>
<path transform="translate(948,784)" d="m0 0c4.12-0.06 8.25-0.09 12.4-0.12 1.17-0.02 2.35-0.04 3.56-0.06 1.68-0.01 1.68-0.01 3.4-0.02 1.03-0.01 2.07-0.02 3.14-0.03 2.52 0.23 2.52 0.23 4.52 2.23l-1 4c-9.4 0.5-9.4 0.5-19 1-1.45 2.39-1.45 2.39 0 7h18l1 5c-4.08 1.15-8.13 1.39-12.3 1.72-2.32 0.24-4.42 0.65-6.66 1.28v5h19l1 5c-1.75 1.75-4.16 1.13-6.53 1.13-1.12 0-2.24 0.01-3.4 0.01-1.18-0.01-2.35-0.01-3.57-0.02-1.77 0.01-1.77 0.01-3.57 0.02-1.68-0.01-1.68-0.01-3.4-0.01h-3.14c-2.39-0.13-2.39-0.13-3.39-1.13-0.09-2.38-0.12-4.72-0.1-7.1 0-0.71 0.01-1.42 0.01-2.15 0-2.27 0.01-4.54 0.03-6.81 0-1.54 0.01-3.08 0.01-4.61 0.01-3.78 0.03-7.55 0.05-11.3z" fill="#000002"/>
<path transform="translate(535,599)" d="m0 0c7.42 0.57 13.6 4.12 18.6 9.56 8.74 10.8 13.9 19.4 13.8 33.4 0 1.19 0 1.19-0.01 2.4-0.23 11.2-4.6 20.4-12.3 28.7h-3c1.56-4.67 4.08-8.09 7-12l-3-2-1 4c-1.56-1-1.56-1-3-3 0.03-2.77 0.51-5.26 1-8h3v-3c0.64-2.34 1.3-4.68 2-7h2c1.73-8.97-1.49-14.4-6-22v2h-3c-0.23-1.22-0.45-2.43-0.69-3.69-2.21-8.51-10.2-12-17.3-16.3l2-3z" fill="#FBFDFD"/>
<path transform="translate(914,784)" d="m0 0c2.69-0.38 2.69-0.38 6 0 3.53 3.37 5.57 6.09 6 11h2c3 4.38 3 4.38 3 7l4 1c0.09-1.81 0.09-1.81 0.18-3.65 0.09-1.57 0.17-3.15 0.26-4.73 0.04-0.79 0.08-1.58 0.12-2.4 0.33-5.99 0.33-5.99 1.44-8.22 2.48 0.5 2.48 0.5 5 1 0.94 3.91 1.05 7.39 0.88 11.4-0.05 1.21-0.1 2.41-0.15 3.65s-0.11 2.49-0.17 3.77c-0.05 1.27-0.1 2.53-0.16 3.84-0.13 3.11-0.26 6.23-0.4 9.35-6.48-0.81-8.72-3.25-12.8-8.19-1.19-1.81-1.19-1.81-1.19-3.81h-2c-1.29-1.46-1.29-1.46-2.62-3.38-0.45-0.62-0.9-1.25-1.36-1.89-1.02-1.73-1.02-1.73-1.02-3.73h-2v21l-5-1c-1.04-10.9-1.29-21.2 0-32z" fill="#000002"/>
<path transform="translate(988,597)" d="m0 0c2.29-0.05 4.58-0.09 6.88-0.12 1.91-0.04 1.91-0.04 3.86-0.08 3.26 0.2 3.26 0.2 5.26 2.2 0.24 1.92 0.24 1.92 0.23 4.25 0 0.83 0 1.67-0.01 2.53-0.01 1.32-0.01 1.32-0.03 2.66v2.64c-0.05 6.5-0.05 6.5-1.19 9.92-40 0.21-40 0.21-57-1 3.4-2.03 6.2-2.31 10.1-2.5 4.17-0.26 8.12-0.66 12.2-1.56 4.34-0.96 8.26-1.1 12.7-0.94v-3c2.89-2.11 4.38-3 8-3v3l2 1v1h2v-7h-2v-2c-0.61 0.03-1.23 0.07-1.86 0.11-1.22 0.04-1.22 0.04-2.45 0.08-1.2 0.05-1.2 0.05-2.43 0.1-2.26-0.29-2.26-0.29-4.05-1.68-1.21-1.61-1.21-1.61-1.21-3.61h12v-2c-0.99-0.33-1.98-0.66-3-1z" fill="#FBFDFD"/>
<path transform="translate(784 597)" d="m0 0c0.69 0.01 1.37 0.02 2.08 0.02 0.68 0 1.36-0.01 2.06-0.02 3.71 0.01 5.33 0.16 8.5 2.27 2.97 0.46 2.97 0.46 6.19 0.63 1.08 0.07 2.17 0.15 3.29 0.22 1.25 0.08 1.25 0.08 2.52 0.15-3.35 2.03-5.87 2.22-9.75 2.13-0.99-0.02-1.97-0.04-2.99-0.06-1.12-0.03-1.12-0.03-2.26-0.07l7 2v3h-5v2h2v2l-2 2-1 2c-2.06 0.63-2.06 0.63-4 1 0.63 0.05 1.26 0.1 1.91 0.16 2.84 0.23 5.68 0.47 8.53 0.72 0.99 0.08 1.98 0.16 3.01 0.24 0.94 0.08 1.88 0.16 2.86 0.25 1.31 0.11 1.31 0.11 2.65 0.22 0.67 0.14 1.34 0.27 2.04 0.41 0.49 0.99 0.49 0.99 1 2-29.7 1.49-29.7 1.49-34 1-2.45-2.45-2.26-3.13-2.27-6.5v-2.68c0.01-1.4 0.01-1.4 0.02-2.82-0.01-0.92-0.02-1.85-0.02-2.81v-2.69c0.01-0.81 0.01-1.63 0.01-2.47 0.59-4.6 3.69-4.28 7.62-4.3z" fill="#FBFDFD"/>
<path transform="translate(865 421)" d="m0 0c0.7 0.14 1.4 0.29 2.12 0.44 3.58 0.9 5.22 1.68 7.4 4.71 1.15 3.62 1.41 6.5 1.36 10.3-0.01 1.17-0.01 2.35-0.02 3.56-0.3 3.48-1.07 6.18-2.3 9.44-0.29 0.91-0.59 1.82-0.89 2.75-2.1 6.43-4.4 12.8-6.86 19-0.9 2.31-1.77 4.62-2.64 6.94-1.85 4.96-3.82 9.86-5.79 14.8-0.37 0.92-0.74 1.83-1.12 2.78l-2.7 6.72h-3c-1.01-3.78-1.03-5.82 0.56-9.38 0.38-0.87 0.76-1.74 1.14-2.64 0.43-0.98 0.86-1.97 1.3-2.98 0.97-2.37 1.93-4.75 2.88-7.13 0.25-0.63 0.5-1.26 0.76-1.92 11.4-23.9 11.4-23.9 12.4-48.8-0.33-0.72-0.66-1.44-1.01-2.18-1.33 0.06-1.33 0.06-2.68 0.12-3.32-0.12-3.32-0.12-5.69-1.12-2.63-1-3.95-1.06-6.69-0.94-4-0.06-5.19-0.31-7.94-3.06l1-2c6.12-1.97 12.3-0.83 18.4 0.56z" fill="#020203"/>
<path transform="translate(845,784)" d="m0 0c2.48 0.5 2.48 0.5 5 1 0.03 0.69 0.05 1.37 0.08 2.08 0.11 3.1 0.23 6.2 0.36 9.3 0.04 1.08 0.08 2.16 0.12 3.27 0.04 1.03 0.08 2.06 0.12 3.12 0.04 0.96 0.08 1.91 0.11 2.89 0.07 2.36 0.07 2.36 1.21 4.34 2.55 0.31 5 0.51 7.56 0.62 0.71 0.04 1.42 0.08 2.16 0.12 1.76 0.1 3.52 0.18 5.28 0.26 0.02-1.28 0.04-2.56 0.06-3.88 0.01-0.71 0.03-1.43 0.04-2.17 0.03-2.03 0.03-2.03-1.1-3.95 0.06-2.52 0.19-4.99 0.38-7.5 0.04-0.69 0.08-1.38 0.13-2.09 0.36-5.15 0.36-5.15 1.49-7.41 4.88 0.88 4.88 0.88 6 2 0.1 1.88 0.13 3.76 0.13 5.64 0 1.16 0.01 2.31 0.01 3.49-0.01 1.22-0.01 2.43-0.02 3.68 0.01 1.81 0.01 1.81 0.02 3.65 0 1.15-0.01 2.31-0.01 3.5v3.22c-0.21 4.53-0.21 4.53-1.13 6.82-4.6 1.53-9.18 1.23-14 1.25-1.01 0.02-2.02 0.04-3.06 0.06-0.97 0.01-1.94 0.01-2.94 0.02-0.89 0.01-1.77 0.02-2.69 0.03-2.31-0.36-2.31-0.36-4.1-1.45-1.84-2.91-1.55-5.36-1.5-8.77 0-0.66 0.01-1.32 0.01-2 0.02-2.11 0.05-4.22 0.09-6.33 0.02-1.43 0.03-2.86 0.04-4.29 0.04-3.51 0.09-7.01 0.15-10.5z" fill="#000002"/>
<path transform="translate(1022,803)" d="m0 0c7.82-0.02 15.6-0.04 23.4-0.05 3.63-0.01 7.25-0.01 10.9-0.03 3.51-0.01 7.02-0.01 10.5-0.01 1.98-0.01 3.95-0.02 5.93-0.02 6.17 0 12.1 0.14 18.2 1.11 0.49 2.48 0.49 2.48 1 5-3.37 1.12-5.91 1.13-9.46 1.13h-1.97c-2.15 0.01-4.3 0.01-6.45 0-1.49 0-2.99 0-4.48 0.01-3.13 0-6.25 0-9.38-0.01-4.02-0.01-8.03 0-12 0-3.09 0.01-6.17 0.01-9.25 0-1.48 0-2.96 0-4.44 0.01-2.07 0-4.13-0.01-6.2-0.01h-3.57c-2.76-0.13-2.76-0.13-4.76-1.13l2-6z" fill="#010103"/>
<path transform="translate(594,784)" d="m0 0c2.06 4.11 1.67 9.52 2 14 7.92-0.5 7.92-0.5 16-1l1-13c5 1 5 1 6 2 0.1 2.11 0.13 4.22 0.13 6.34 0 1.93 0 1.93 0.01 3.91-0.01 1.02-0.01 1.02-0.01 2.05 0 2.06 0 4.12 0.01 6.18 0 1.29-0.01 2.59-0.01 3.92v3.61c-0.13 2.99-0.13 2.99-1.13 5.99h-4c-2.14-3.22-2.21-3.96-2.06-7.62 0.05-1.46 0.08-2.92 0.06-4.38-1.13-1.36-1.13-1.36-4.12-1.13-1.28 0-2.56 0-3.88 0.01-1.28-0.01-2.56-0.01-3.88-0.01-2.99-0.23-2.99-0.23-4.12 1.13-0.23 1.85-0.41 3.7-0.56 5.56-0.09 1.01-0.17 2.03-0.26 3.07-0.06 0.78-0.12 1.56-0.18 2.37l-5-1v-31c2-1 2-1 4-1z" fill="#010103"/>
<path transform="translate(629 644)" d="m0 0c1.02 0.01 2.04 0.02 3.09 0.03 1.11 0 2.22 0.01 3.36 0.01 1.74 0.03 1.74 0.03 3.51 0.07 1.74 0 1.74 0 3.52 0.01 8.61 0.08 8.61 0.08 10.9 1.24v21c-4.16 0.02-8.32 0.04-12.5 0.05-1.41 0.01-2.82 0.01-4.22 0.02-9.49 0.06-18.8-0.25-28.3-1.07 2.35-2.36 3.03-2.31 6.25-2.57 0.86-0.07 1.71-0.15 2.59-0.22 0.9-0.07 1.8-0.14 2.72-0.21 8.83-0.71 17.1-2 25.4-5-0.5-1.49-0.5-1.49-1-3-4.33-0.74-8.66-1.4-13-2v-2l5-1c-4.29-0.66-8.58-1.32-13-2 3-3 3-3 5.6-3.36z" fill="#FBFDFD"/>
<path transform="translate(523 803)" d="m0 0c1.24 0 2.48 0.01 3.76 0.01 9.58 0.05 19.2 0.25 28.7 0.55 1.96 0.06 1.96 0.06 3.97 0.12 1.2 0.04 2.4 0.09 3.64 0.13 1.07 0.04 2.13 0.07 3.23 0.11 2.41 0.2 2.41 0.2 3.41 1.2 0.04 1.67 0.04 3.34 0 5-8.96 0.07-17.9 0.13-26.9 0.16-4.16 0.02-8.32 0.04-12.5 0.07-4.01 0.03-8.03 0.05-12 0.06-1.53 0.01-3.07 0.02-4.6 0.03-2.14 0.02-4.29 0.03-6.43 0.03-1.83 0.01-1.83 0.01-3.7 0.02-0.94-0.12-1.89-0.24-2.86-0.37l-2-3 1-3c7.77-0.96 15.4-1.15 23.2-1.12z" fill="#000002"/>
<path transform="translate(761 499)" d="m0 0c1.24 0.01 1.24 0.01 2.51 0.01 0.84 0.01 1.68 0.01 2.55 0.01 8.68 0.06 17.3 0.54 26 1.12 1.2 2.4 1.1 3.95 1.06 6.62-0.01 0.82-0.02 1.64-0.03 2.48-0.01 0.63-0.02 1.25-0.03 1.9-4.11 0.05-8.22 0.08-12.3 0.11-1.39 0.01-2.78 0.02-4.18 0.04-7.75 0.09-15-0.04-22.5-2.15-0.1-6.93-0.1-6.93 0-9 1.85-1.85 4.47-1.13 6.93-1.14z" fill="#000002"/>
<path transform="translate(808 501)" d="m0 0c1.3 0.04 2.59 0.09 3.93 0.13 1.02 0.04 1.02 0.04 2.06 0.08 2.04 0.08 4.07 0.15 6.11 0.21 18.3 0.65 18.3 0.65 22.5 1.49 1.48 2.96 1.06 5.75 1 9-3.89 0.03-7.79 0.05-11.7 0.06-1.95 0.01-3.91 0.02-5.87 0.03-22.2 0.06-22.2 0.06-26.4-2.09v-8c2.85-1.42 5.18-1.02 8.37-0.91z" fill="#000002"/>
<path transform="translate(528 788)" d="m0 0h2.05c1.42 0 2.84 0.01 4.26 0.02 2.18 0.02 4.36 0.03 6.54 0.02 10.7 0.04 10.7 0.04 13 1.19 2.55 0.23 5.07 0.42 7.63 0.56 0.7 0.05 1.41 0.09 2.14 0.13 1.74 0.11 3.49 0.21 5.23 0.31 1.13 3.75 1.13 3.75 0 6h-52l-1-6c4.18-2.01 7.59-2.25 12.2-2.23z" fill="#000002"/>
<path transform="translate(790,784)" d="m0 0c2.31-0.03 4.62-0.05 6.94-0.06 1.29-0.01 2.57-0.03 3.9-0.04 3.16 0.1 3.16 0.1 4.16 1.1 0.31 3.39 0.28 6.79 0.31 10.2 0.03 0.94 0.06 1.89 0.09 2.87 0.06 6.03-0.48 9.3-4.4 13.9-0.56 0.76-1.11 1.53-1.69 2.31-3.56 2.6-6.96 2.98-11.3 2.69-4.61-1.31-7.4-3.29-10.5-6.94-1.5-3.05-1.89-4.72-1.5-8.06l5-1v2c0.99 0.33 1.98 0.66 3 1l1 5c1.41 0.3 2.83 0.57 4.25 0.81 0.79 0.15 1.58 0.3 2.39 0.46 2.57-0.06 2.57-0.06 4.64-2.3 2.14-3.7 2.13-6.04 1.97-10.3-0.04-1.26-0.07-2.51-0.11-3.8-0.05-0.96-0.09-1.91-0.14-2.89-2.97-0.99-5.94-1.98-9-3l1-4z" fill="#010103"/>
<path transform="translate(1022,788)" d="m0 0h46c1.24-0.15 1.24-0.15 2.5-0.31 2.5 0.31 2.5 0.31 4.38 2.69 0.37 0.86 0.74 1.73 1.12 2.62l-1 2c-7.51 0.08-15 0.13-22.5 0.16-2.56 0.02-5.12 0.04-7.68 0.07-3.66 0.03-7.33 0.05-11 0.06-1.15 0.02-2.3 0.03-3.48 0.05h-3.22c-1.4 0.01-1.4 0.01-2.84 0.02-1.11-0.18-1.11-0.18-2.25-0.36l-2-3 2-4z" fill="#0E0E0F"/>
<path transform="translate(821 789)" d="m0 0c1.27 0.11 2.53 0.21 3.84 0.32 1.27 0.1 2.54 0.2 3.85 0.3 3.09 0.39 3.09 0.39 4.09 1.39 0.08 1.49 0.1 2.98 0.1 4.47-0.01 0.9-0.01 1.8-0.01 2.73-0.01 0.94-0.02 1.89-0.03 2.86 0 0.95-0.01 1.9-0.01 2.88-0.02 2.35-0.03 4.71-0.05 7.06h-16c-1.71-3.42-1.19-7.23-1.19-11-0.01-0.83-0.02-1.66-0.04-2.52v-2.42c-0.01-0.73-0.01-1.46-0.02-2.21 0.48-3.65 2.05-3.85 5.47-3.86z" fill="#FBFDFD"/>
<path transform="translate(981,783)" d="m0 0c0.99 0.33 1.98 0.66 3 1l1 9h2c0.56 0.68 1.11 1.36 1.69 2.06 2.25 2.3 2.25 2.3 5.81 2.06 3.66-0.84 3.66-0.84 5.81-3.81 1.57-3.07 2.74-6 3.69-9.31h2c1.97 4.76 2.01 7.96 1 13h-2v3c-5.75 3-5.75 3-8 3l-2 14-5-2c-0.03-0.68-0.05-1.35-0.08-2.05-0.26-5.65-0.26-5.65-2.86-10.5-1.99-1.47-1.99-1.47-4.06-2.44v-2h-2v-2h-2c-0.05-1.79-0.09-3.58-0.12-5.38-0.03-0.99-0.05-1.99-0.08-3.02 0.2-2.6 0.2-2.6 2.2-4.6z" fill="#010103"/>
<path transform="translate(725,784)" d="m0 0c2.48 0.5 2.48 0.5 5 1l1 10c4.14 1.58 7.56 2.58 12 2 3.59-2.29 4.35-4.77 5.25-8.75 0.26-1.41 0.52-2.83 0.75-4.25l4 1c1.51 8.9 1.51 8.9-1 13-2.43 2.23-4.63 3.82-7.62 5.23-2.67 1.59-2.67 1.59-3.09 4.69-0.03 1.08-0.07 2.16-0.1 3.27-0.05 1.08-0.1 2.17-0.15 3.29-0.02 1.25-0.02 1.25-0.04 2.52l-5-1c0-1.23 0-1.23-0.01-2.48 0.07-5.99 0.07-5.99-2.39-11.1-1.83-1.15-1.83-1.15-4.6-2.38v-2l-4-2v-12z" fill="#010102"/>
<path transform="translate(1082,668)" d="m0 0h3v31c-3.77 0.02-7.55 0.04-11.4 0.06-1.19 0.01-2.38 0.02-3.61 0.03-1.4 0-1.4 0-2.82 0.01-0.96 0-1.92 0.01-2.91 0.01-2.22-0.11-2.22-0.11-3.22-1.11-0.04-2.33-0.04-4.67 0-7l2 2 2-4c0.39 0.95 0.78 1.9 1.19 2.88 2.01 3.46 3.04 4.1 6.81 5.12 0-2.16-0.45-3.92-1-6h-2l-1 2v-2l-2-1v-2c0.99-0.33 1.98-0.66 3-1l2 1v-4c2-2 2-2 4-3v-7c0.99 0.33 1.98 0.66 3 1 0.06 0.85 0.12 1.71 0.18 2.59 0.13 1.66 0.13 1.66 0.26 3.35 0.08 1.1 0.16 2.2 0.24 3.34 0.02 2.63 0.02 2.63 1.32 3.72l1-20z" fill="#FBFDFD"/>
<path transform="translate(580 426)" d="m0 0c0.78 0.04 1.56 0.08 2.36 0.12 0.84 0.05 1.69 0.09 2.56 0.14 0.89 0.05 1.78 0.1 2.69 0.15 0.89 0.05 1.77 0.09 2.68 0.14 6.63 0.36 6.63 0.36 8.88 1.49l-1 5c-0.99 0.33-1.98 0.66-3 1-0.31 0.8-0.61 1.61-0.93 2.44-1.28 3.08-2.18 3.16-5.07 4.56-0.64 2.02-0.64 2.02-1 4-1.64-0.14-3.29-0.29-4.93-0.44-1.38-0.12-1.38-0.12-2.78-0.25-2.29-0.31-2.29-0.31-3.29-1.31-0.1-2.68-0.13-5.33-0.12-8 0-0.75-0.01-1.5-0.01-2.28 0.01-6.7 0.01-6.7 2.96-6.76z" fill="#F7FAF9"/>
<path transform="translate(748,444)" d="m0 0c2.57-0.37 2.57-0.37 5.78-0.36h3.49c1.21 0.01 2.42 0.03 3.67 0.05 1.2-0.01 2.41-0.01 3.65-0.01 9.01 0.05 9.01 0.05 12.4 2.32-1 1-1 1-4.16 1.1-1.93-0.02-1.93-0.02-3.9-0.04-1.29-0.01-2.58-0.02-3.91-0.02-1-0.02-2-0.03-3.03-0.04l-1 2c-0.99-0.33-1.98-0.66-3-1-1.56-0.07-3.13-0.09-4.69-0.06-0.81 0.01-1.61 0.02-2.45 0.02-0.61 0.02-1.23 0.03-1.86 0.04-2.14 4.34-2.29 8.33-2.27 13.1v2.32c0 1.61 0 3.22 0.01 4.83 0.01 2.47 0 4.94-0.01 7.41v4.69c0 1.11 0 1.11-0.01 2.25-0.09 4.17-0.09 4.17 2.28 7.43 0.97 0.31 1.94 0.62 2.94 0.94 2.92 1.01 4.15 1.72 6.06 4.06-4.5 0.18-7.99 0.18-12-2-2-3-2-3-2-6h-2c-0.05-4.45-0.09-8.89-0.11-13.3-0.01-1.51-0.02-3.02-0.04-4.54-0.03-2.18-0.04-4.35-0.05-6.53-0.01-1.31-0.02-2.62-0.03-3.97 0.29-4.64 0.88-8.27 4.23-11.6l2-3z" fill="#161616"/>
<path transform="translate(776,494)" d="m0 0c0.52 0.14 1.03 0.27 1.57 0.42 8.62 2.01 17.2 2.03 26 2.2 1.6 0.04 3.19 0.08 4.78 0.12 3.87 0.1 7.73 0.18 11.6 0.26 0.5 1.49 0.5 1.49 1 3 1.03 0.03 1.03 0.03 2.08 0.06 3.1 0.1 6.2 0.2 9.3 0.32 1.62 0.04 1.62 0.04 3.27 0.09 1.55 0.06 1.55 0.06 3.12 0.12 1.43 0.04 1.43 0.04 2.89 0.09 2.34 0.32 2.34 0.32 4.34 2.32 0.2 2.16 0.2 2.16 0.12 4.62-0.01 0.82-0.03 1.64-0.05 2.48-0.02 0.63-0.05 1.25-0.07 1.9h-1c-0.22-1.67-0.22-1.67-0.44-3.38-0.34-3.44-0.34-3.44-1.56-5.62-14.2-0.33-28.4-0.66-43-1v7h-1v-9c-0.99 0.33-1.98 0.66-3 1l-1 11h-1c-0.06-0.7-0.12-1.4-0.18-2.12-0.13-1.36-0.13-1.36-0.26-2.76-0.08-0.9-0.16-1.8-0.24-2.74-0.19-2.39-0.19-2.39-1.32-4.38h-18c1-2 1-2 4-3l-2-1v-2z" fill="#F7FAF9"/>
<path transform="translate(755 395)" d="m0 0c4.47 0.33 8.48-0.09 12.9-0.73 0.99 0.33 1.98 0.66 3 1v2h-6c-0.31 0.8-0.62 1.61-0.94 2.44-1.06 2.56-1.06 2.56-2.06 3.56-2 0.04-4 0.04-6 0-1.06-1.88-1.06-1.88-2-4l1-2h-28l-1 9c-6.15 0.1-6.15 0.1-8 0-1-1-1-1-1.1-3.07 0.01-0.82 0.02-1.65 0.04-2.49 0-0.83 0.01-1.66 0.02-2.51 0.01-0.64 0.03-1.27 0.04-1.93 12.7-2.66 25.2-2.31 38.1-1.27z" fill="#F7FAF9"/>
<path transform="translate(538 776)" d="m0 0c1.43 0 2.87 0.01 4.3 0.02h2.28c2.42 0.01 4.83 0.02 7.25 0.03 1.63 0.01 3.26 0.01 4.9 0.01 4.01 0.02 8.02 0.03 12 0.05 0.38 1.66 0.71 3.33 1 5-1 1-1 1-4.24 1.12-1.43 0-2.87-0.01-4.3-0.02h-2.28c-2.42-0.01-4.83-0.02-7.25-0.03-1.63-0.01-3.26-0.01-4.9-0.02-4.01-0.01-8.02-0.03-12-0.05-0.39-1.65-0.72-3.32-1-5 1-1 1-1 4.23-1.11z" fill="#000002"/>
<path transform="translate(681,672)" d="m0 0h1v1.76c0.01 2.64 0.07 5.28 0.12 7.93v2.76c0.07 4.96 0.07 4.96 2.17 9.32 1.74 1.61 1.74 1.61 4.71 3.23 2.8-0.04 2.8-0.04 5-1-2.31-0.99-4.62-1.98-7-3l1-4v3c2.87-0.03 2.87-0.03 6-1 2.41-2.94 2.41-2.94 4-6l2 2 2-9h1l1 21c-3.79 0.08-7.58 0.14-11.4 0.19-1.08 0.02-2.16 0.05-3.27 0.07-1.55 0.02-1.55 0.02-3.12 0.03-0.96 0.02-1.91 0.03-2.89 0.05-0.77-0.11-1.54-0.22-2.34-0.34-2.15-3.22-2.29-4.28-2-8l1-1c0.16-1.34 0.25-2.69 0.32-4.04 0.06-1.21 0.06-1.21 0.12-2.45 0.04-0.85 0.08-1.7 0.12-2.57 0.05-0.86 0.09-1.71 0.13-2.59 0.11-2.12 0.21-4.23 0.31-6.35z" fill="#FBFDFD"/>
<path transform="translate(1021,776)" d="m0 0h35c0.49 2.48 0.49 2.48 1 5-1.94 1.94-5.6 1.16-8.25 1.17-0.72 0-1.45 0-2.2 0.01-1.54 0-3.08 0.01-4.61 0.01-2.36 0-4.72 0.02-7.08 0.03-1.5 0.01-2.99 0.01-4.48 0.01-1.06 0.01-1.06 0.01-2.15 0.02-5-0.02-5-0.02-7.23-2.25v-4z" fill="#000002"/>
<path transform="translate(761,599)" d="m0 0v65h-1l-1-5h-1c-0.01-0.58-0.02-1.17-0.03-1.77-0.11-6.1-0.22-12.2-0.34-18.3-0.05-2.27-0.09-4.55-0.13-6.82-0.06-3.28-0.12-6.55-0.18-9.83-0.02-1.01-0.04-2.02-0.05-3.06-0.12-5.48-0.48-10.8-1.27-16.2l-7-2v-1c4.1-0.64 7.83-1 12-1z" fill="#FBFDFD"/>
<path transform="translate(745,602)" d="m0 0h10c0.97 3.97 1.05 7.53 0.88 11.6-0.05 1.25-0.1 2.5-0.15 3.78-0.05 1.3-0.11 2.59-0.17 3.92-0.05 1.32-0.1 2.63-0.16 3.98-0.13 3.24-0.26 6.47-0.4 9.71-1.49 0.5-1.49 0.5-3 1l-1-10h-2c-0.93-3.01-1.04-3.87 0-7l-2-1 2-3-1-2h2v-2l-2-1-1-2c-0.99 1.49-0.99 1.49-2 3h-2c0.49-3.12 1-6 2-9z" fill="#FBFDFD"/>
<path transform="translate(702 789)" d="m0 0c1.89 0.01 1.89 0.01 3.81 0.02 1.26-0.01 2.52-0.01 3.81-0.02 3.19 0.27 3.19 0.27 5.19 2.27 0.23 2.12 0.23 2.12 0.19 4.56-0.01 0.8-0.01 1.61-0.02 2.44-0.17 2-0.17 2-1.17 3-2.51 0.1-4.99 0.13-7.5 0.12-0.7 0-1.4 0.01-2.13 0.01-5.24-0.01-5.24-0.01-6.37-1.13-0.28-1.47-0.5-2.96-0.69-4.44-0.1-0.8-0.21-1.61-0.32-2.44 0.02-3.79 1.7-4.1 5.2-4.39z" fill="#FBFDFD"/>
<path transform="translate(669 789)" d="m0 0c1.17 0.01 2.33 0.01 3.53 0.02 1.17-0.01 2.33-0.01 3.53-0.02 2.97 0.27 2.97 0.27 4.97 2.27 0.2 2.38 0.2 2.38 0.13 5.12-0.02 0.91-0.04 1.82-0.06 2.76-0.02 0.7-0.04 1.4-0.07 2.12-2.64 0.02-5.29 0.04-7.94 0.06-1.13 0.01-1.13 0.01-2.28 0.02-1.93 0.01-3.85-0.03-5.78-0.08-1.59-1.59-1.17-3.25-1.19-5.44-0.01-0.8-0.02-1.61-0.04-2.44 0.39-3.6 1.74-4.08 5.2-4.39z" fill="#FBFDFD"/>
<path transform="translate(1063,353)" d="m0 0c3.01 2.92 5.92 5.91 8.75 9 0.59 0.64 1.19 1.28 1.8 1.94 1.66 2.36 2.08 4.22 2.45 7.06-0.64 0.29-1.28 0.58-1.94 0.88-2.21 0.95-2.21 0.95-3.06 3.12-3.26-0.26-4.07-1.08-6.29-3.58-0.77-1.07-1.54-2.13-2.33-3.23-0.78-1.06-1.56-2.12-2.36-3.21-1.56-2.3-2.88-4.45-4.02-6.98l2-1 1 2 4-1v-5z" fill="#161616"/>
<path transform="translate(890 789)" d="m0 0c1.06 0.09 2.13 0.18 3.22 0.27 1.06 0.08 2.12 0.15 3.22 0.23 2.85 0.58 2.85 0.58 4.74 1.87 2.03 3.15 0.74 6.17 0.11 9.71h-15c-1.12-2.23-1.17-3.53-1.19-6-0.02-0.7-0.03-1.4-0.05-2.12 0.41-3.33 1.77-3.86 4.95-3.96z" fill="#FBFDFD"/>
<path transform="translate(786 449)" d="m0 0c1.19 0 2.37 0.01 3.59 0.01 2.89 0.02 5.77 0.03 8.66 0.05v2l2 1c-3.07 1.54-6.28 1.06-9.64 0.99-1.56-0.01-3.12-0.03-4.68-0.05-2.46-0.03-4.92-0.06-7.38-0.11-2.38-0.04-4.75-0.06-7.13-0.09-0.73-0.01-1.45-0.03-2.21-0.05-4.74-0.03-7.89 0.89-12 3.31v-4c7.55-5.03 20-3.12 28.8-3.06z" fill="#000002"/>
<path transform="translate(518,793)" d="m0 0h51v3h-52l1-3z" fill="#191919"/>
<path transform="translate(644,789)" d="m0 0c2.6 3.9 2.15 7.47 2 12h-15l-1-4c1.14-1.89 1.14-1.89 2.81-3.69 0.55-0.6 1.09-1.2 1.65-1.82 3.01-2.91 5.49-2.58 9.54-2.49z" fill="#FBFDFD"/>
<path transform="translate(868,600)" d="m0 0-1 21c-9.57-0.33-19.1-0.66-29-1v-2c4.44-1.11 8.77-1.12 13.3-1.06 0.74 0 1.48 0.01 2.25 0.01 1.81 0.01 3.63 0.03 5.44 0.05 0.12-0.64 0.25-1.28 0.38-1.94 0.2-0.68 0.41-1.36 0.62-2.06l2-1v2h2c0.17-1.62 0.33-3.25 0.5-4.88 0.14-1.35 0.14-1.35 0.28-2.74 0.25-2.31 0.25-2.31 0.22-4.38l-4-2c3-1 3-1 7 0z" fill="#FBFDFD"/>
<path transform="translate(646,398)" d="m0 0h30c0.5 1.49 0.5 1.49 1 3h-3c0.52 0.76 1.03 1.53 1.56 2.31 0.48 0.89 0.95 1.78 1.44 2.69l-1 3v-2h-2v-3c-3.07-0.9-5.79-1.12-8.98-1.1-0.94 0.01-1.87 0.01-2.84 0.01-1.45 0.01-1.45 0.01-2.93 0.03-1.48 0-1.48 0-2.98 0.01-2.42 0.01-4.85 0.03-7.27 0.05v-1c-2.31-0.33-4.62-0.66-7-1l4-1v-2z" fill="#F7FAF9"/>
<path transform="translate(755,456)" d="m0 0h2c-0.05 1.17-0.05 1.17-0.1 2.37-0.12 3.56-0.2 7.13-0.28 10.7-0.05 1.23-0.1 2.46-0.15 3.73-0.23 7.79-0.23 7.79 3.3 14.5 2.19 2.16 4.44 3.47 7.23 4.75-5.29 0.5-7.91-0.65-12-4-2.17-3.32-2.26-6.1-2.27-10v-3.49c0-1.19 0.01-2.39 0.02-3.62-0.01-1.21-0.02-2.42-0.02-3.66v-3.48c0.01-1.05 0.01-2.1 0.01-3.19 0.26-2.55 0.26-2.55 2.26-4.55z" fill="#070709"/>
<path transform="translate(805,409)" d="m0 0h34v2h2v2c-3.25 1.08-5.71 1.13-9.12 1.12-1.08 0.01-2.16 0.01-3.26 0.01-2.62-0.13-2.62-0.13-3.62-1.13-1.41-0.16-2.83-0.25-4.25-0.32-0.86-0.04-1.71-0.08-2.59-0.12-0.9-0.04-1.8-0.08-2.72-0.12-0.9-0.05-1.81-0.09-2.73-0.13-2.24-0.11-4.47-0.21-6.71-0.31l-1-3z" fill="#080809"/>
<path transform="translate(1022,788)" d="m0 0h43c-2 3-2 3-3.8 3.36-0.72-0.01-1.44-0.01-2.19-0.02h-2.49c-0.88-0.02-1.77-0.03-2.68-0.05-0.91 0-1.82-0.01-2.75-0.01-2.91-0.02-5.81-0.05-8.71-0.09-1.97-0.02-3.94-0.03-5.9-0.04-4.83-0.04-9.65-0.09-14.5-0.15v-3z" fill="#1E1E1E"/>
<path transform="translate(578,427)" d="m0 0h6c2.18 2.25 2.97 3.86 3.06 7.01-0.27 3.14-0.66 5.47-2.62 7.99-0.71 0.5-0.71 0.5-1.44 1-2.48-0.99-2.48-0.99-5-2v-14z" fill="#070709"/>
<path transform="translate(832,688)" d="m0 0 3 2v9h-23c-1.35-2.71-1.07-5.01-1-8l2 2c1.02 0.22 1.02 0.22 2.06 0.44 0.64 0.18 1.28 0.37 1.94 0.56l1 3c6.13-0.19 6.13-0.19 11.5-2.81 1.46-2.14 2.14-3.65 2.5-6.19z" fill="#FBFDFD"/>
<path transform="translate(528 788)" d="m0 0h2.06 4.32c2.21 0.01 4.41 0 6.62-0h4.19 3.86c3.04 0.13 3.04 0.13 5.04 1.13v2h-35v-2c2.96-1.47 5.62-1.13 8.91-1.13z" fill="#171717"/>
<path transform="translate(754,487)" d="m0 0c1.03 0.64 2.06 1.28 3.12 1.94 3.27 1.88 6.1 2.69 9.88 3.06v-2h6l-2 5-15 1-1 3c-0.99-0.33-1.98-0.66-3-1v-2l4-2c-0.33-0.6-0.66-1.2-1-1.81-1-2.19-1-2.19-1-5.19z" fill="#E6E9E8"/>
<path transform="translate(1018,597)" d="m0 0h26l1 2c-3 0.87-5.65 1.12-8.77 1.1-0.89-0.01-1.77-0.01-2.69-0.01-0.92-0.01-1.84-0.02-2.79-0.03-0.94 0-1.87-0.01-2.84-0.01-2.3-0.01-4.61-0.03-6.91-0.05v2l-1 3c-1.56-1.75-1.56-1.75-3-4l1-4z" fill="#F7FAF9"/>
<path transform="translate(699,427)" d="m0 0c2 0 2 0 4.24 2.17 1.37 1.4 1.37 1.4 2.76 2.83 2.02 1.8 4.1 3.53 6.19 5.25 0.53 0.45 1.06 0.89 1.61 1.35 2.93 2.45 2.93 2.45 6.2 4.4v2h-2l-1 3v-2c-0.99-0.33-1.98-0.66-3-1-1.17-1.43-2.33-2.87-3.47-4.32-1.74-1.91-3.59-3.22-5.72-4.68-3.58-2.55-4.96-4.56-5.81-9z" fill="#F7FAF9"/>
<path transform="translate(808 421)" d="m0 0c1.79 0.02 1.79 0.02 3.62 0.04 1.8 0.01 1.8 0.01 3.63 0.02 0.93 0.01 1.85 0.03 2.81 0.04 0.38 1.65 0.71 3.32 1 5-1 1-1 1-3.94 1.1-1.8-0.02-1.8-0.02-3.62-0.04-1.8-0.01-1.8-0.01-3.63-0.03-0.93-0.01-1.86-0.02-2.81-0.03-0.38-1.66-0.72-3.33-1-5 1-1 1-1 3.94-1.1z" fill="#09090A"/>
<path transform="translate(943,686)" d="m0 0h1v13h-13v-2c1.65-1.03 3.32-2.02 5-3l3-3h2l1-3 1-2z" fill="#FBFDFD"/>
<path transform="translate(599,429)" d="m0 0c-1.38 2-1.38 2-3 4h-2c-0.4 1.18-0.4 1.18-0.81 2.38-1.19 2.62-1.19 2.62-4.19 4.62-0.96-2.88-1.11-4.7-1.06-7.69 0.01-0.81 0.02-1.61 0.02-2.45 0.02-0.61 0.03-1.23 0.04-1.86 7.43-1.43 7.43-1.43 11 1z" fill="#161617"/>
<path transform="translate(721 397)" d="m0 0c3.06 0.19 3.06 0.19 5.06 2.19 0.13 3.62 0.13 3.62 0 7-6.15 0.1-6.15 0.1-8 0-1-1-1-1-1.12-4.5 0.16-4.44 0.16-4.44 4.06-4.69z" fill="#191A1A"/>
<path transform="translate(828,421)" d="m0 0h12l1 5c-3.21 1.61-6.44 1.06-10 1v-2l-4-1 1-3z" fill="#060607"/>
<path transform="translate(683,511)" d="m0 0c4.46 0.11 8.92 0.24 13.4 0.38 1.27 0.03 2.54 0.06 3.85 0.09 1.21 0.04 2.42 0.08 3.67 0.12 1.68 0.04 1.68 0.04 3.39 0.09 2.71 0.32 2.71 0.32 4.71 2.32h-30l1-3z" fill="#F8FAFA"/>
<path transform="translate(813 414)" d="m0 0c0.99 0.03 1.99 0.05 3.01 0.08 1.14 0.05 1.14 0.05 2.3 0.11l1 5c-2.12 0.05-4.25 0.09-6.37 0.12-1.78 0.04-1.78 0.04-3.59 0.07-3.04-0.19-3.04-0.19-5.04-2.19 2.59-3.36 4.58-3.34 8.69-3.19z" fill="#000002"/>
<path transform="translate(883,597)" d="m0 0h21l1 2c-5.2 0.87-10.2 1.13-15.4 1.06-0.73 0-1.46-0.01-2.21-0.01-1.79-0.01-3.57-0.03-5.35-0.05l1-3z" fill="#F7FAF9"/>
<path transform="translate(720,784)" d="m0 0 2 2 3-2c0.03 1.96 0.05 3.92 0.06 5.88 0.01 1.09 0.03 2.18 0.04 3.3-0.1 2.82-0.1 2.82-1.1 4.82l-4-1v-13z" fill="#F7FAF9"/>
<path transform="translate(755,456)" d="m0 0h2v17h-4c-0.05-2.46-0.09-4.92-0.12-7.38-0.02-0.69-0.04-1.39-0.06-2.11-0.01-1.84 0.08-3.68 0.18-5.51l2-2z" fill="#171717"/>
<path transform="translate(1106,597)" d="m0 0c3.79-0.06 7.58-0.09 11.4-0.12 1.08-0.02 2.16-0.04 3.27-0.06 1.03 0 2.06-0.01 3.12-0.02 1.43-0.01 1.43-0.01 2.89-0.03 2.34 0.23 2.34 0.23 4.34 2.23-2.94 0.98-4.83 1.12-7.89 1.1-0.93-0.01-1.87-0.01-2.84-0.01-0.97-0.01-1.95-0.02-2.96-0.03-1.48 0-1.48 0-2.99-0.01-2.44-0.01-4.88-0.03-7.32-0.05l-1-3z" fill="#F8FBFA"/>
<path transform="translate(745,492)" d="m0 0c2.97 0.99 5.94 1.98 9 3-0.99 0.5-0.99 0.5-2 1v2c0.99 0.33 1.98 0.66 3 1-0.14 1.63-0.29 3.25-0.44 4.88-0.08 0.9-0.16 1.8-0.24 2.74-0.32 2.38-0.32 2.38-1.32 4.38h-2v-14h-2v-2l-5-1 1-2z" fill="#F7FAF9"/>
<path transform="translate(755,444)" d="m0 0c3.1-0.06 6.21-0.09 9.31-0.12 0.88-0.02 1.76-0.04 2.67-0.06 0.85 0 1.7-0.01 2.57-0.02 1.17-0.01 1.17-0.01 2.37-0.03 2.08 0.23 2.08 0.23 5.08 2.23-1 1-1 1-4.16 1.1-1.93-0.02-1.93-0.02-3.9-0.04-1.29-0.01-2.58-0.02-3.91-0.02-1-0.02-2-0.03-3.03-0.04l-1 2c-3.16-1.37-3.99-1.99-6-5z" fill="#181818"/>
<path transform="translate(746,606)" d="m0 0c0.99 0.33 1.98 0.66 3 1 0.14 0.97 0.29 1.94 0.44 2.94 0.24 2.92 0.24 2.92 1.56 4.06l-4 7c-2.48-2.16-3.59-3.7-4-7l1-3h2v-2l-2-1h2v-2z" fill="#F8FBFA"/>
<path transform="translate(874,450)" d="m0 0c1.03 2.79 1.05 3.87 0.06 6.75-0.35 0.74-0.7 1.49-1.06 2.25h2c-0.31 1.88-0.31 1.88-1 4l-3 2c-1.19 2.05-1.19 2.05-2 4-1.11-1.69-1.11-1.69-2-4 0.64-2.44 0.64-2.44 1.81-5 1.6-3.54 1.6-3.54 2.7-7.25 0.16-0.58 0.32-1.15 0.49-1.75l2-1z" fill="#F8FBFA"/>
<path transform="translate(805,428)" d="m0 0h13l1 4c-2.12 0.05-4.25 0.09-6.38 0.12-1.77 0.04-1.77 0.04-3.58 0.08-3.04-0.2-3.04-0.2-5.04-2.2l1-2z" fill="#000002"/>
<path transform="translate(717,405)" d="m0 0 10 1c-0.88 4.75-0.88 4.75-2 7-5.75-1.88-5.75-1.88-8-3v-5z" fill="#F7FAF9"/>
<path transform="translate(702 789)" d="m0 0c1.89 0.01 1.89 0.01 3.81 0.02 1.26-0.01 2.52-0.01 3.81-0.02 3.19 0.27 3.19 0.27 5.19 2.27 0.13 3.12 0.13 3.12 0 6h-1v-5c-1.06 0.09-2.12 0.19-3.21 0.28-1.39 0.12-2.77 0.23-4.16 0.34-1.05 0.1-1.05 0.1-2.12 0.2-1.83 0.14-3.67 0.16-5.51 0.18l-2-2c2-2 2-2 5.19-2.27z" fill="#F7FAF9"/>
<path transform="translate(827,428)" d="m0 0h13l1 4h-13l-1-4z" fill="#000002"/>
<path transform="translate(685,784)" d="m0 0c1.95 0.61 1.95 0.61 4 2 0.64 2.86 0.64 2.86 0.81 6.31 0.07 1.13 0.14 2.26 0.21 3.43-0.02 2.93-0.32 5.43-1.02 8.26-0.99-0.33-1.98-0.66-3-1 0.02-1.43 0.02-1.43 0.04-2.89 0-1.25 0.01-2.51 0.02-3.8 0.01-1.24 0.03-2.48 0.04-3.76-0.09-3.01-0.39-5.63-1.1-8.55z" fill="#F7FAF9"/>
<path transform="translate(827,415)" d="m0 0c1.96-0.03 3.92-0.05 5.88-0.06 1.09-0.01 2.18-0.03 3.3-0.04 2.82 0.1 2.82 0.1 4.82 1.1v3h-13l-1-4z" fill="#000002"/>
<path transform="translate(906,788)" d="m0 0h3v17h-3v-17z" fill="#1C1C1C"/>
<path transform="translate(870,602)" d="m0 0v19c-3-3-3-3-3.29-6.57 0.02-1.38 0.05-2.75 0.1-4.12 0.02-0.7 0.03-1.4 0.04-2.12 0.04-1.73 0.09-3.46 0.15-5.19 2-1 2-1 3-1z" fill="#181818"/>
<path transform="translate(767 450)" d="m0 0c1.18 0.02 2.36 0.04 3.57 0.05 1.36 0.04 1.36 0.04 2.74 0.07 0.33 0.67 0.66 1.32 1 2-2.64 0.85-4.55 0.98-7.37 0.88-3.99 0.14-6.22 1.13-9.63 3.12v-4c3.63-2.42 5.39-2.21 9.69-2.12z" fill="#161617"/>
<path transform="translate(777,444)" d="m0 0 2 1-1 4c-5.67 1.23-11.2 1.09-17 1l1-3c1-0.05 2-0.1 3.03-0.15 1.29-0.07 2.58-0.15 3.91-0.23 1.29-0.06 2.57-0.13 3.9-0.21 1.04-0.13 2.09-0.27 3.16-0.41l1-2z" fill="#F7FAF9"/>
<path transform="translate(851,602)" d="m0 0h12l-1 5c-4.63 0.32-7.28-0.16-11-3v-2z" fill="#FCFEFE"/>
<path transform="translate(781 597)" d="m0 0c2.05 0.03 4.1 0.07 6.15 0.1v2c0.99-0.33 1.98-0.66 3-1l1 2h-11l-1 18h-1c-0.03-3.31-0.04-6.63-0.06-9.94-0.01-0.95-0.02-1.89-0.03-2.87 0-0.89 0-1.79-0.01-2.72 0-0.83-0.01-1.66-0.01-2.52 0.15-2.58 0.37-2.91 2.96-3.05z" fill="#F7FAF9"/>
<path transform="translate(759 397)" d="m0 0c0.99 0.1 1.98 0.21 3 0.31l2 3c-0.99 1.49-0.99 1.49-2 3-3.12 0.19-3.12 0.19-6 0l-2-4c2-2 2-2 5-2.31z" fill="#181818"/>
<path transform="translate(666,789)" d="m0 0h13l2 4h-16l1-4z" fill="#F7FAF9"/>
<path transform="translate(842,423)" d="m0 0h1v10c-0.99-1.32-1.98-2.64-3-4-3.19-0.7-3.19-0.7-6.69-0.75-1.18-0.06-2.36-0.11-3.57-0.17-0.91-0.03-1.81-0.05-2.74-0.08v5h-1v-9c2.48 0.5 2.48 0.5 5 1v2l10-1 1-3z" fill="#F7FAF9"/>
<path transform="translate(804,418)" d="m0 0 17 1v8c-3-3.75-3-3.75-3-6-1.01 0.13-1.01 0.13-2.05 0.25-0.89 0.11-1.78 0.21-2.7 0.31-0.88 0.11-1.76 0.21-2.67 0.32-2.46 0.11-4.25-0.14-6.58-0.88v-3z" fill="#EDF0EF"/>
<path transform="translate(774,441)" d="m0 0 2 2c-3.31 1.65-6.99 1.1-10.6 1.06-0.81 0-1.61-0.01-2.43-0.01-1.99-0.01-3.97-0.03-5.95-0.05l-1-2c13-1.32 13-1.32 18-1z" fill="#F8FBFA"/>
<path transform="translate(582,690)" d="m0 0c1.49 0.99 1.49 0.99 3 2v3h2v2c0.99 0.33 1.98 0.66 3 1v1h-8c-1.37-2.73-1.13-4.98-1-8l1-1z" fill="#FCFEFE"/>
<path transform="translate(745,489)" d="m0 0c9.59 1.56 9.59 1.56 13 6-4.45 0.17-8.09 0.3-12-2-0.63-2.08-0.63-2.08-1-4z" fill="#161616"/>
<path transform="translate(748,444)" d="m0 0c2.92 0.02 5.72 0.14 8.62 0.38 0.81 0.05 1.61 0.11 2.43 0.17 1.99 0.14 3.97 0.29 5.95 0.45v1c-1.12 0.1-2.24 0.2-3.39 0.3-1.48 0.15-2.95 0.3-4.42 0.45-1.11 0.09-1.11 0.09-2.24 0.19-4.48 0.48-4.48 0.48-7.96 3.14-0.33 0.63-0.65 1.27-0.99 1.92-0.12-2.88-0.12-2.88 0-6l2-2z" fill="#09090A"/>
<path transform="translate(464,390)" d="m0 0c0 3.88-1.65 6.4-3.5 9.69-0.33 0.6-0.67 1.21-1.01 1.84l-2.49 4.47h-3c1.09-2.3 2.2-4.59 3.31-6.88 0.31-0.65 0.62-1.3 0.94-1.97 1.64-3.35 2.59-5.04 5.75-7.15z" fill="#F9FBFB"/>
<path transform="translate(1083,803)" d="m0 0c1.65-0.03 3.29-0.05 4.94-0.06 0.91-0.01 1.83-0.03 2.77-0.04 2.29 0.1 2.29 0.1 3.29 1.1 0.12 3.5 0.12 3.5 0 7-1 1-1 1-2.85 1.1-2.05-0.03-4.1-0.07-6.15-0.1l4-1v-2h3l-1-4-8-1v-1z" fill="#F7FAF9"/>
<path transform="translate(634 807)" d="m0 0c1.79 0.02 1.79 0.02 3.62 0.04 1.8 0.01 1.8 0.01 3.63 0.02 0.93 0.01 1.85 0.03 2.81 0.04l1 2c-6.44 0.49-6.44 0.49-13 1l-1 8h-1c-0.03-1.65-0.05-3.29-0.06-4.94-0.02-0.92-0.03-1.83-0.04-2.78 0.15-3.46 0.52-3.26 4.04-3.38z" fill="#F8FBFA"/>
<path transform="translate(742,804)" d="m0 0h2v14h-2c-0.99-2.98-1.13-5.02-1.12-8.12-0.01-0.89-0.01-1.78-0.01-2.7 0.13-2.18 0.13-2.18 1.13-3.18z" fill="#F7FAF9"/>
<path transform="translate(732,511)" d="m0 0h15l-1 3-15-1 1-2z" fill="#1E1E1E"/>
<path transform="translate(754,439)" d="m0 0h13v3c-1.79 0.03-3.58 0.05-5.38 0.06-0.99 0.01-1.99 0.03-3.02 0.04-2.6-0.1-2.6-0.1-4.6-1.1v-2z" fill="#181818"/>
<path transform="translate(619 675)" d="m0 0c1.28 0.01 2.56 0.02 3.88 0.03 0.99 0.01 1.98 0.02 3 0.03-0.34 0.66-0.66 1.32-1 2-2.62 0.49-2.62 0.49-5.88 0.75-1.6 0.15-1.6 0.15-3.24 0.3-2.88-0.05-2.88-0.05-5.88-2.05 3-1.5 5.79-1.09 9.12-1.06z" fill="#FAFCFC"/>
<path transform="translate(946,459)" d="m0 0c0.73 0.98 0.73 0.98 1.48 1.98 3.47 2.78 6.54 2.46 10.8 2.27 0.75-0.02 1.49-0.04 2.26-0.05 1.83-0.05 3.66-0.12 5.49-0.2l1 2c-3.12 0.09-6.25 0.14-9.38 0.19-0.88 0.02-1.77 0.05-2.69 0.07-1.28 0.02-1.28 0.02-2.58 0.03-1.18 0.03-1.18 0.03-2.38 0.05-0.65-0.11-1.3-0.22-1.97-0.34-2-3-2-3-2-6z" fill="#F7FAF9"/>
<path transform="translate(686,892)" d="m0 0 11 1v1l-7 2 1 3h2v2c-3.35-1.39-5.11-2.89-7-6v-3z" fill="#F7FAF9"/>
<path transform="translate(754,464)" d="m0 0h1c0.75 6.37 1.1 12.6 1 19l-1-2h-2l1-17z" fill="#010103"/>
<path transform="translate(588,428)" d="m0 0c2.97 0.5 2.97 0.5 6 1-0.19 2.38-0.19 2.38-1 5-2.56 1.31-2.56 1.31-5 2v-8z" fill="#020204"/>
<path transform="translate(761,646)" d="m0 0v18h-1l-1-5h-1v-12c2-1 2-1 3-1z" fill="#FCFEFE"/>
<path transform="translate(1149,387)" d="m0 0h2c0.96 1.73 1.92 3.46 2.88 5.19 0.8 1.44 0.8 1.44 1.61 2.92 1.35 2.59 2.48 5.16 3.51 7.89h-2v-2h-2c-1-2.14-2-4.29-3-6.44-0.84-1.79-0.84-1.79-1.69-3.62-1.31-2.94-1.31-2.94-1.31-3.94z" fill="#F7FAF9"/>
<path transform="translate(861,203)" d="m0 0c4.93 0.51 9.38 1.09 14 3l1 2c-1.67 0.04-3.33 0.04-5 0l-1-1c-1.35-0.23-2.7-0.41-4.06-0.56-1.3-0.15-2.6-0.29-3.94-0.44l-1-3z" fill="#F7FAF9"/>
<path transform="translate(741,699)" d="m0 0h11l1 3h-11l-1-3z" fill="#151515"/>
<path transform="translate(612,509)" d="m0 0c2.97 0.5 2.97 0.5 6 1-0.99 0.33-1.98 0.66-3 1 0.33 0.76 0.66 1.53 1 2.31 1 2.69 1 2.69 1 5.69h2v2c-3.66-1.22-4.35-2.87-6.23-6.11-0.77-1.89-0.77-1.89-0.77-5.89z" fill="#F7FAF9"/>
<path transform="translate(839,409)" d="m0 0c1.98 0.5 1.98 0.5 4 1v9c-0.99 0.5-0.99 0.5-2 1v-4c-0.99-0.33-1.98-0.66-3-1l1-2h2v-2h-2v-2z" fill="#F8FBFA"/>
<path transform="translate(888,357)" d="m0 0c3.62 1.21 3.84 1.98 5.56 5.25 0.43 0.81 0.86 1.62 1.3 2.45 1.18 2.39 2.25 4.78 3.14 7.3h-2v-2h-2c-1.98-4.29-3.96-8.58-6-13z" fill="#F7FAF9"/>
<path transform="translate(887,789)" d="m0 0c1.96 0.11 3.92 0.24 5.88 0.38 1.09 0.06 2.18 0.13 3.3 0.21 2.82 0.41 2.82 0.41 4.82 2.41h-15l1-3z" fill="#F8FBFA"/>
<path transform="translate(868,600)" d="m0 0-1 10c-2-4-2-4-2-8l-4-2c3-1 3-1 7 0z" fill="#FCFEFE"/>
<path transform="translate(718,445)" d="m0 0c2.38 0.25 2.38 0.25 5 1 1.31 2.06 1.31 2.06 2 4l-2-1-1 5-2-2v-3h-2v-4z" fill="#F9FCFB"/>
<path transform="translate(888 807)" d="m0 0c1.24 0.02 1.24 0.02 2.5 0.04 0.82 0 1.65 0.01 2.5 0.02 0.64 0.01 1.28 0.03 1.93 0.04v2l-8 1-1 3h-2c1.07-5.96 1.07-5.96 4.07-6.1z" fill="#F9FCFB"/>
<path transform="translate(789,788)" d="m0 0c6.05 0.39 6.05 0.39 8 1l2 4c-2.97-0.33-5.94-0.66-9-1l-1-4z" fill="#F7FAF9"/>
<path transform="translate(594,784)" d="m0 0h3v14c-2.68-2.68-2.39-4.39-2.62-8.12-0.08-1.1-0.15-2.2-0.23-3.33-0.05-0.84-0.1-1.68-0.15-2.55z" fill="#F8FBFA"/>
<path transform="translate(418,531)" d="m0 0c0.12 7.62 0.12 7.62-1 11h-2v-10c2-1 2-1 3-1z" fill="#F7FAF9"/>
<path transform="translate(925,449)" d="m0 0 2 1c-0.76 0.74-1.53 1.49-2.31 2.25-2.65 2.57-2.65 2.57-4.38 5.06-0.65 0.84-0.65 0.84-1.31 1.69h-2v-3h2l2-4h2v-2l2-1z" fill="#F9FBFB"/>
<path transform="translate(755,444)" d="m0 0h12v2l-12-1v-1zm2 2h8c-0.99 0.33-1.98 0.66-3 1l-1 2-4-2v-1z" fill="#171717"/>
<path transform="translate(792,395)" d="m0 0c1.46-0.03 2.92-0.05 4.38-0.06 0.81-0.01 1.62-0.03 2.46-0.04 2.16 0.1 2.16 0.1 4.16 1.1v2h-10l-1-3z" fill="#F7FAF9"/>
<path transform="translate(899,790)" d="m0 0c3.88 0.88 3.88 0.88 5 2 0.07 1.52 0.08 3.04 0.06 4.56-0.01 0.83-0.02 1.66-0.02 2.51-0.02 0.95-0.02 0.95-0.04 1.93-1.5-1.31-1.5-1.31-3-3-0.04-2-0.04-4 0-6l-2-2z" fill="#171717"/>
<path transform="translate(644,807)" d="m0 0 4 1v9c-0.99-0.33-1.98-0.66-3-1l-1-9z" fill="#181818"/>
<path transform="translate(698,808)" d="m0 0h19v1c-8.41 0.5-8.41 0.5-17 1l-1 2h-2l1-4z" fill="#F7FAF9"/>
<path transform="translate(869,793)" d="m0 0v10h-2c-1.48-2.96-1.06-5.74-1-9 2-1 2-1 3-1z" fill="#151515"/>
<path transform="translate(922,692)" d="m0 0c3.74 1.25 4.19 2.63 6 6-1.66 0.38-3.32 0.71-5 1-1-1-1-1-1.06-4.06 0.02-0.97 0.04-1.94 0.06-2.94z" fill="#FCFEFE"/>
<path transform="translate(874,450)" d="m0 0c0.93 2.55 1.09 3.74 0.22 6.36-0.38 0.79-0.76 1.58-1.16 2.39-0.57 1.2-0.57 1.2-1.15 2.42-0.3 0.61-0.6 1.21-0.91 1.83-1.45-4.56-0.4-7.49 1-12l2-1z" fill="#F7FAF9"/>
<path transform="translate(717,407)" d="m0 0c2.97 0.99 5.94 1.98 9 3l-1 3c-5.75-1.88-5.75-1.88-8-3v-3z" fill="#171717"/>
<path transform="translate(921,219)" d="m0 0c1.61 0.4 3.21 0.82 4.81 1.25 0.9 0.23 1.79 0.46 2.71 0.7 2.86 1.21 3.86 2.45 5.48 5.05-8.87-2.43-8.87-2.43-12-4l-1-3z" fill="#F7FAF9"/>
</svg>
